<svg xmlns="http://www.w3.org/2000/svg" xmlns:xlink="http://www.w3.org/1999/xlink" viewBox="0,0,256,256" width="96px" height="96px"><g fill="#666666" fill-rule="nonzero" stroke="none" stroke-width="1" stroke-linecap="butt" stroke-linejoin="miter" stroke-miterlimit="10" stroke-dasharray="" stroke-dashoffset="0" font-family="none" font-weight="none" font-size="none" text-anchor="none" style="mix-blend-mode: normal"><g transform="scale(5.33333,5.33333)"><path d="M24,6c-1.875,0 -3.47118,0.75713 -4.49609,1.91016c-1.02491,1.15302 -1.50391,2.63151 -1.50391,4.08984c0,1.45833 0.479,2.93682 1.50391,4.08984c1.02491,1.15302 2.62109,1.91016 4.49609,1.91016c1.875,0 3.47118,-0.75713 4.49609,-1.91016c1.02491,-1.15302 1.50391,-2.63151 1.50391,-4.08984c0,-1.45833 -0.479,-2.93682 -1.50391,-4.08984c-1.02491,-1.15302 -2.62109,-1.91016 -4.49609,-1.91016zM11,8c-1.54167,0 -2.88785,0.63213 -3.74609,1.59766c-0.85824,0.96552 -1.25391,2.19401 -1.25391,3.40234c0,1.20833 0.39566,2.43682 1.25391,3.40234c0.85824,0.96552 2.20443,1.59766 3.74609,1.59766c1.54167,0 2.88785,-0.63213 3.74609,-1.59766c0.85824,-0.96552 1.25391,-2.19401 1.25391,-3.40234c0,-1.20833 -0.39566,-2.43682 -1.25391,-3.40234c-0.85824,-0.96552 -2.20443,-1.59766 -3.74609,-1.59766zM37,8c-1.54167,0 -2.88785,0.63213 -3.74609,1.59766c-0.85824,0.96552 -1.25391,2.19401 -1.25391,3.40234c0,1.20833 0.39566,2.43682 1.25391,3.40234c0.85824,0.96552 2.20443,1.59766 3.74609,1.59766c1.54167,0 2.88785,-0.63213 3.74609,-1.59766c0.85824,-0.96552 1.25391,-2.19401 1.25391,-3.40234c0,-1.20833 -0.39566,-2.43682 -1.25391,-3.40234c-0.85824,-0.96552 -2.20443,-1.59766 -3.74609,-1.59766zM24,9c1.125,0 1.77882,0.36787 2.25391,0.90234c0.47509,0.53448 0.74609,1.30599 0.74609,2.09766c0,0.79167 -0.271,1.56318 -0.74609,2.09766c-0.47509,0.53448 -1.12891,0.90234 -2.25391,0.90234c-1.125,0 -1.77882,-0.36787 -2.25391,-0.90234c-0.47509,-0.53448 -0.74609,-1.30599 -0.74609,-2.09766c0,-0.79167 0.271,-1.56318 0.74609,-2.09766c0.47509,-0.53448 1.12891,-0.90234 2.25391,-0.90234zM11,11c0.79167,0 1.19548,0.24287 1.50391,0.58984c0.30842,0.34698 0.49609,0.86849 0.49609,1.41016c0,0.54167 -0.18767,1.06318 -0.49609,1.41016c-0.30842,0.34698 -0.71224,0.58984 -1.50391,0.58984c-0.79167,0 -1.19548,-0.24287 -1.50391,-0.58984c-0.30842,-0.34698 -0.49609,-0.86849 -0.49609,-1.41016c0,-0.54167 0.18767,-1.06318 0.49609,-1.41016c0.30842,-0.34698 0.71224,-0.58984 1.50391,-0.58984zM37,11c0.79167,0 1.19548,0.24287 1.50391,0.58984c0.30842,0.34698 0.49609,0.86849 0.49609,1.41016c0,0.54167 -0.18767,1.06318 -0.49609,1.41016c-0.30842,0.34698 -0.71224,0.58984 -1.50391,0.58984c-0.79167,0 -1.19548,-0.24287 -1.50391,-0.58984c-0.30842,-0.34698 -0.49609,-0.86849 -0.49609,-1.41016c0,-0.54167 0.18767,-1.06318 0.49609,-1.41016c0.30842,-0.34698 0.71224,-0.58984 1.50391,-0.58984zM7.5,20c-1.93,0 -3.5,1.57 -3.5,3.5v6.5c0,4.41 3.59,8 8,8c0.71,0 1.40055,-0.08953 2.06055,-0.26953c-0.42,-0.9 -0.73039,-1.86109 -0.90039,-2.87109c-0.37,0.09 -0.76016,0.14063 -1.16016,0.14063c-2.76,0 -5,-2.24 -5,-5v-6.5c0,-0.28 0.22,-0.5 0.5,-0.5h5.5293c0.1,-1.14 0.54047,-2.17 1.23047,-3zM18.5,20c-1.91495,0 -3.5,1.58505 -3.5,3.5v9.5c0,4.95272 4.04728,9 9,9c4.95272,0 9,-4.04728 9,-9v-9.5c0,-1.91495 -1.58505,-3.5 -3.5,-3.5zM33.74023,20c0.69,0.83 1.13047,1.86 1.23047,3h5.5293c0.28,0 0.5,0.22 0.5,0.5v6.5c0,2.76 -2.24,5 -5,5c-0.4,0 -0.79016,-0.05062 -1.16016,-0.14062c-0.17,1.01 -0.48039,1.97109 -0.90039,2.87109c0.66,0.18 1.35055,0.26953 2.06055,0.26953c4.41,0 8,-3.59 8,-8v-6.5c0,-1.93 -1.57,-3.5 -3.5,-3.5zM18.5,23h11c0.29504,0 0.5,0.20496 0.5,0.5v9.5c0,3.33128 -2.66872,6 -6,6c-3.33128,0 -6,-2.66872 -6,-6v-9.5c0,-0.29504 0.20496,-0.5 0.5,-0.5z"></path></g></g></svg>