<svg xmlns="http://www.w3.org/2000/svg" xmlns:xlink="http://www.w3.org/1999/xlink" viewBox="0,0,256,256" width="48px" height="48px"><g fill="#7d7d7d" fill-rule="nonzero" stroke="none" stroke-width="1" stroke-linecap="butt" stroke-linejoin="miter" stroke-miterlimit="10" stroke-dasharray="" stroke-dashoffset="0" font-family="none" font-weight="none" font-size="none" text-anchor="none" style="mix-blend-mode: normal"><g transform="scale(10.66667,10.66667)"><path d="M9,1v2h6v-2zM12,4c-4.962,0 -9,4.037 -9,9c0,4.963 4.038,9 9,9c4.962,0 9,-4.037 9,-9c0,-2.19219 -0.79035,-4.20287 -2.09766,-5.76562l1.50977,-1.79687l-1.53125,-1.28711l-1.43164,1.70313c-1.51474,-1.15806 -3.39987,-1.85352 -5.44922,-1.85352zM11,7h2v4.27734c0.595,0.346 1,0.98366 1,1.72266c0,1.105 -0.895,2 -2,2c-1.105,0 -2,-0.895 -2,-2c0,-0.738 0.405,-1.37566 1,-1.72266z"></path></g></g></svg>