<svg xmlns="http://www.w3.org/2000/svg" xmlns:xlink="http://www.w3.org/1999/xlink" viewBox="0,0,256,256" width="90px" height="90px"><g fill="#374151" fill-rule="nonzero" stroke="none" stroke-width="1" stroke-linecap="butt" stroke-linejoin="miter" stroke-miterlimit="10" stroke-dasharray="" stroke-dashoffset="0" font-family="none" font-weight="none" font-size="none" text-anchor="none" style="mix-blend-mode: normal"><g transform="scale(8.53333,8.53333)"><path d="M13,3c-0.26757,-0.00363 -0.52543,0.10012 -0.71593,0.28805c-0.1905,0.18793 -0.29774,0.44436 -0.29774,0.71195h-5.98633c-0.36064,-0.0051 -0.69608,0.18438 -0.87789,0.49587c-0.18181,0.3115 -0.18181,0.69676 0,1.00825c0.18181,0.3115 0.51725,0.50097 0.87789,0.49587h18c0.36064,0.0051 0.69608,-0.18438 0.87789,-0.49587c0.18181,-0.3115 0.18181,-0.69676 0,-1.00825c-0.18181,-0.3115 -0.51725,-0.50097 -0.87789,-0.49587h-5.98633c0,-0.26759 -0.10724,-0.52403 -0.29774,-0.71195c-0.1905,-0.18793 -0.44836,-0.29168 -0.71593,-0.28805zM6,8v16c0,1.105 0.895,2 2,2h14c1.105,0 2,-0.895 2,-2v-16zM12,13c0.25575,0 0.51153,0.09747 0.70703,0.29297l2.29297,2.29297l2.29297,-2.29297c0.391,-0.391 1.02306,-0.391 1.41406,0c0.391,0.391 0.391,1.02306 0,1.41406l-2.29297,2.29297l2.29297,2.29297c0.391,0.391 0.391,1.02306 0,1.41406c-0.195,0.195 -0.45103,0.29297 -0.70703,0.29297c-0.256,0 -0.51203,-0.09797 -0.70703,-0.29297l-2.29297,-2.29297l-2.29297,2.29297c-0.195,0.195 -0.45103,0.29297 -0.70703,0.29297c-0.256,0 -0.51203,-0.09797 -0.70703,-0.29297c-0.391,-0.391 -0.391,-1.02306 0,-1.41406l2.29297,-2.29297l-2.29297,-2.29297c-0.391,-0.391 -0.391,-1.02306 0,-1.41406c0.1955,-0.1955 0.45128,-0.29297 0.70703,-0.29297z"></path></g></g></svg>