<svg xmlns="http://www.w3.org/2000/svg" xmlns:xlink="http://www.w3.org/1999/xlink" viewBox="0,0,256,256" width="96px" height="96px"><g fill="#7d7d7d" fill-rule="nonzero" stroke="none" stroke-width="1" stroke-linecap="butt" stroke-linejoin="miter" stroke-miterlimit="10" stroke-dasharray="" stroke-dashoffset="0" font-family="none" font-weight="none" font-size="none" text-anchor="none" style="mix-blend-mode: normal"><g transform="scale(10.66667,10.66667)"><path d="M15.854,12.481c-0.735,-0.46 -1.758,-0.881 -3.068,-1.264c-1.31,-0.382 -2.251,-0.807 -2.822,-1.276c-0.572,-0.467 -0.858,-1.096 -0.858,-1.885c0,-0.85 0.271,-1.514 0.813,-1.989c0.541,-0.476 1.323,-0.713 2.345,-0.713c0.979,0 1.758,0.321 2.333,0.964c0.576,0.643 0.864,1.51 0.864,2.601l-0.001,0.081h2.372l0.001,-0.08c0,-1.582 -0.401,-2.829 -1.205,-3.74c-0.804,-0.91 -1.927,-1.455 -3.371,-1.632l-0.007,-0.001v-2.547h-2v2.551c-1.392,0.165 -2.494,0.639 -3.297,1.432c-0.821,0.811 -1.232,1.849 -1.232,3.115c0,1.243 0.419,2.268 1.257,3.075c0.838,0.806 2.172,1.461 4.002,1.963c1.315,0.394 2.249,0.834 2.804,1.32c0.553,0.487 0.831,1.085 0.831,1.795c0,0.842 -0.323,1.506 -0.967,1.992c-0.645,0.486 -1.53,0.729 -2.656,0.729c-1.151,0 -2.041,-0.289 -2.668,-0.868c-0.627,-0.579 -0.94,-1.405 -0.94,-2.478h-2.384c0,1.528 0.453,2.738 1.359,3.63c0.883,0.869 2.101,1.37 3.641,1.517v2.227h2v-2.21l0.025,-0.001c1.572,-0.147 2.795,-0.617 3.667,-1.413c0.871,-0.795 1.308,-1.845 1.308,-3.149c0,-0.818 -0.175,-1.532 -0.522,-2.143c-0.348,-0.609 -0.89,-1.144 -1.624,-1.603z"></path></g></g></svg>