<svg xmlns="http://www.w3.org/2000/svg" xmlns:xlink="http://www.w3.org/1999/xlink" viewBox="0,0,256,256" width="192px" height="192px"><g fill="#666666" fill-rule="evenodd" stroke="none" stroke-width="1" stroke-linecap="butt" stroke-linejoin="miter" stroke-miterlimit="10" stroke-dasharray="" stroke-dashoffset="0" font-family="none" font-weight="none" font-size="none" text-anchor="none" style="mix-blend-mode: normal"><g transform="scale(10.66667,10.66667)"><g><path d="M15,5v6.5h1v-6.5z"></path><path d="M15.14,4.14l-3,3l0.7,0.7l2.64,-2.65l2.64,2.64l0.7,-0.71l-3,-3c-0.2,-0.2 -0.52,-0.2 -0.71,0z"></path><path d="M4,2.5c-0.83,0 -1.5,0.67 -1.5,1.5v16c0,0.82 0.67,1.5 1.5,1.5h16c0.82,0 1.5,-0.68 1.5,-1.5v-4.5h1v4.5c0,1.38 -1.12,2.5 -2.5,2.5h-16c-1.39,0 -2.5,-1.12 -2.5,-2.5v-16c0,-1.39 1.11,-2.5 2.5,-2.5h4.5v1z"></path><path d="M8.07,16.12c-0.58,-0.72 -1.66,-0.75 -2.28,-0.07l-3.44,3.77l-0.74,-0.68l3.43,-3.78c1.02,-1.14 2.82,-1.09 3.79,0.1l5.03,6.19l-0.78,0.63l-5.04,-6.2z"></path><path d="M17.46,18.67c-0.56,-0.56 -1.46,-0.59 -2.05,-0.07l-2.6,2.26l-0.66,-0.76l2.59,-2.27c0.99,-0.87 2.48,-0.82 3.41,0.11l3.17,3.17l-0.71,0.7l-3.18,-3.18z"></path><path d="M15.5,2.5c-3.32,0 -6,2.68 -6,6c0,3.31 2.68,6 6,6c3.31,0 6,-2.69 6,-6c0,-3.32 -2.69,-6 -6,-6zM8.5,8.5c0,-3.87 3.13,-7 7,-7c3.86,0 7,3.13 7,7c0,3.86 -3.14,7 -7,7c-3.87,0 -7,-3.14 -7,-7z"></path></g></g></g></svg>