<svg xmlns="http://www.w3.org/2000/svg" viewBox="0 0 3000 2875" width="3000" height="2875"><g transform="translate(818.75 347.5) rotate(0.0 1005.0 1166.25) scale(1.2474113112278808 1.2471421330327717)"><svg width="1611.337" height="1870.276" viewBox="0 0 1611.337 1870.276"><g fill="#FEECF8"><path d="M713.431 1870.265c-28.249 0-56.245-1.615-83.897-4.852-78.229-9.156-154.017-31.36-225.257-65.996-64.914-31.561-123.622-69.167-174.494-111.773-48.813-40.882-90.84-86.708-124.914-136.205-65.02-94.451-101.19-203.036-104.6-314.015-3.426-111.509 25.993-223.083 85.078-322.661 30.044-50.635 67.507-97.783 111.35-140.134 45.238-43.699 97.298-82.298 154.733-114.725 156.716-88.478 315.783-136.146 456.126-178.202 132.956-39.843 247.78-74.252 325.763-132.872 40.009-30.075 67.951-64.88 85.423-106.402 19.358-46.007 26.227-100.538 20.996-166.707-.783-9.91 6.616-18.579 16.526-19.362 9.882-.783 18.579 6.615 19.362 16.526 10.893 137.818-27.453 234.646-120.677 304.723-83.121 62.483-200.799 97.748-337.06 138.581-138.534 41.514-295.553 88.568-448.761 175.066-54.778 30.927-104.378 67.69-147.421 109.269-41.533 40.12-76.996 84.737-105.401 132.611-55.588 93.686-83.271 198.526-80.055 303.186 1.575 51.286 10.542 102.119 26.651 151.086 16.551 50.309 40.646 98.63 71.617 143.621 32.229 46.818 72.057 90.226 118.375 129.019 48.621 40.721 104.849 76.719 167.121 106.996 67.596 32.865 139.495 53.932 213.701 62.616 69.826 8.173 142.126 5.464 214.887-8.051 136.071-25.273 271.573-87.655 391.859-180.4 56.481-43.55 108.031-92.638 153.216-145.902 45.142-53.213 82.906-109.386 112.244-166.957 61.308-120.306 82.583-240.127 61.526-346.508-1.931-9.752 4.41-19.222 14.162-21.152 9.752-1.929 19.223 4.41 21.152 14.162 22.641 114.381.245 242.27-64.766 369.843-30.603 60.054-69.922 118.562-116.867 173.9-46.816 55.188-100.207 106.033-158.686 151.123-124.783 96.213-265.613 160.975-407.268 187.285-47.569 8.835-94.996 13.263-141.749 13.263z"/><path d="m1318.268 84.922-120.965 14.134L1247.037 0z"/></g></svg></g><g transform="translate(1330.0 2008.75) rotate(0.0 555.625 391.25) scale(1.2326869191534866 1.2325726824089431)"><svg width="901.486" height="634.851" viewBox="0 0 901.486 634.851"><path d="M192.633 634.851c-17.338 0-34.097-5.192-48.463-15.014-52.47-35.874-93.417-91.308-118.413-160.312C3.93 399.27-4.425 330.771 2.231 266.647c5.393-51.95 20.58-100.39 43.92-140.084 28.064-47.727 68.056-83.38 115.654-103.102C214.757 1.521 273.926-5.203 332.919 4.016c55.098 8.611 105.191 30.632 141.052 62.008 52.817 46.213 74.417 92.446 90.188 126.204 14 29.965 18.353 38.19 35.086 47.566 13.335 7.473 21.167 7.253 51.802 2.945 43.917-6.175 110.281-15.506 185.75 41.359 38.642 29.116 61.502 74.129 64.371 126.747 2.433 44.639-9.527 85.237-19.988 111.434-13.968 34.977-33.638 65.503-55.388 85.954-16.01 15.054-36.926 23.346-58.896 23.348-23.985.001-46.242-9.618-62.669-27.088-32.396-34.454-30.8-88.894 3.552-121.387 3.119-3.281 11.738-16.573 17.374-35.186 3.964-13.094 4.731-23.7 4.169-29.33-15.209-10.537-23.51-9.86-54.323-5.526-14.654 2.061-32.891 4.625-53.264 4.626-38.269.002-73.129-9.107-106.572-27.847-65.732-36.834-89.489-87.68-106.835-124.807-12.319-26.368-22.048-47.193-47.617-69.565-21.634-18.929-81.469-34.489-133.065-13.11-28.621 11.859-48.933 50.007-54.334 102.047-4.029 38.817 1 80.204 14.162 116.537 12.464 34.408 31.561 61.72 53.772 76.905 18.963 12.965 31.742 32.538 35.983 55.115 4.242 22.577-.562 45.454-13.527 64.417-16.042 23.461-42.61 37.469-71.069 37.469zM281.52 5c-40.856 0-80.87 7.778-117.8 23.08-46.586 19.303-85.749 54.234-113.258 101.017-22.98 39.081-37.938 86.824-43.257 138.066-6.581 63.388 1.678 131.099 23.253 190.659 24.637 68.012 64.934 122.608 116.534 157.886 13.531 9.252 29.313 14.142 45.641 14.142 26.808 0 51.832-13.193 66.941-35.292 12.211-17.861 16.736-39.407 12.741-60.672-3.995-21.264-16.031-39.699-33.892-51.91-23.069-15.772-42.833-43.945-55.651-79.33-13.414-37.028-18.54-79.203-14.434-118.756 5.595-53.895 27.051-93.577 57.394-106.15 53.444-22.145 115.683-5.798 138.271 13.967 26.361 23.065 36.287 44.311 48.854 71.209 17.059 36.513 40.422 86.516 104.75 122.563 32.676 18.311 66.737 27.211 104.127 27.209 20.023 0 38.068-2.538 52.568-4.577 32.337-4.548 41.51-5.232 58.811 7.029a2.497 2.497 0 0 1 1.028 1.677c.892 6.079.255 17.823-4.204 32.551-5.794 19.137-14.55 32.759-18.257 36.88a2.54 2.54 0 0 1-.251.285 2.508 2.508 0 0 1-.426.404c-32.147 30.627-33.581 81.75-3.135 114.13 15.472 16.454 36.435 25.515 59.026 25.513 20.691-.001 40.391-7.811 55.471-21.99 21.229-19.961 40.466-49.852 54.169-84.166 10.275-25.729 22.022-65.579 19.639-109.307-2.787-51.121-24.942-94.812-62.387-123.026-73.815-55.619-138.945-46.461-182.041-40.402-31.013 4.361-40.46 4.583-54.946-3.534-18.026-10.101-22.933-19.336-37.172-49.812-15.583-33.355-36.925-79.037-88.95-124.557-35.158-30.761-84.356-52.365-138.532-60.831A328.031 328.031 0 0 0 281.52 5z" fill="#4939bb"/></svg></g><g transform="translate(1518.75 1023.75) rotate(0.0 706.875 880.0) scale(1.2509678132949895 1.2503694273308021)"><svg width="1130.125" height="1407.584" viewBox="0 0 1130.125 1407.584"><path d="M931.815 1234.696c-2.298 9.026 35.562 83.157 35.562 83.157 48.461 27.659 92.228 22.352 119.865-10.259 0 0-24.449-112.127-37.725-118.255-26.763-12.352-113.003 26.898-117.702 45.357z" fill="#fff"/><path d="M1027.259 1338.192c-19.209 0-40.159-6.204-61.121-18.168a2.496 2.496 0 0 1-.987-1.034c-.095-.186-9.59-18.797-18.682-38.273-18.733-40.131-17.573-44.69-17.077-46.638 3.091-12.141 31.752-26.623 40.463-30.771 28.387-13.522 64.35-23.789 80.71-16.238 2.56 1.182 9.359 4.32 25.208 63.044 7.699 28.527 13.852 56.667 13.913 56.948a2.5 2.5 0 0 1-.535 2.149c-14.163 16.712-32.765 26.603-53.794 28.604a86.234 86.234 0 0 1-8.098.377zm-57.996-22.143c22.829 12.897 45.506 18.696 65.619 16.787 19.31-1.837 36.452-10.794 49.65-25.924-1.262-5.689-6.829-30.455-13.591-55.512-14.137-52.381-20.774-59.008-22.472-59.791-14.804-6.833-50.016 3.614-76.464 16.212-20.942 9.976-36.12 21.023-37.768 27.49-1.22 5.172 16.792 44.98 35.026 80.738z" fill="#4939bb"/><path d="M648.666 1084.148c6.204 6.948 93.455 12.538 93.455 12.538 50.01-24.748 53.269-70.354 41.656-111.492 0 0-109.335-49.058-121.834-41.468-25.195 15.299-25.964 126.214-13.277 140.422z" fill="#fff"/><path d="M742.12 1099.185c-.053 0-.106-.001-.16-.005-.219-.014-22.117-1.427-44.491-3.671-46.144-4.629-49.315-8.18-50.669-9.697-5.783-6.476-7.682-26.735-8.299-38.234-1.031-19.212-.071-40.634 2.634-58.775 2.646-17.742 8.179-40.335 19.509-47.216 2.426-1.474 8.871-5.385 67.813 17.697 28.622 11.208 56.068 23.504 56.342 23.627a2.496 2.496 0 0 1 1.382 1.602c6.714 23.782 7.481 45.065 2.279 63.259-6.357 22.236-21.576 39.447-45.232 51.153-.344.172-.724.26-1.108.26zm-91.595-16.708c3.899 3.883 49.238 8.966 91.083 11.67 50.347-25.284 49.753-71.949 40.075-107.15-5.328-2.37-29.738-13.146-55.064-23.062-52.543-20.575-61.797-19.035-63.379-18.073-7.547 4.583-13.642 20.096-17.159 43.68-2.658 17.822-3.601 38.878-2.587 57.769 1.149 21.395 4.384 32.191 7.031 35.166z" fill="#4939bb"/><path d="M758.137 1176.271c-13.337-29.195-21.738-50.12-21.017-79.586 0 0 43.196-35.205 44.166-75.959.853-35.848-32.455-51.759-32.455-51.759 35.991-20.861 71.123-20.857 111.888-9.999l-71.785 312.842c-25.448-7.478-57.346-52.48-30.797-95.539z" fill="#1f201b"/><path d="m817.357 1277.65 71.488-311.545c1.792-7.808-3.086-15.59-10.893-17.382-7.808-1.792-15.59 3.086-17.382 10.893l-71.488 311.545c-1.792 7.808 3.086 15.59 10.893 17.382 7.809 1.792 15.591-3.085 17.382-10.893z" fill="#feecf8"/><path d="M803.221 1291.412c-1.255 0-2.53-.14-3.804-.433a16.894 16.894 0 0 1-10.605-7.543 16.889 16.889 0 0 1-2.166-12.833l71.488-311.545c2.097-9.139 11.239-14.867 20.377-12.771 9.139 2.097 14.868 11.239 12.771 20.377l-71.488 311.544c-1.805 7.865-8.826 13.204-16.573 13.204zm71.486-340.557c-5.469 0-10.426 3.769-11.7 9.321l-71.488 311.545c-1.48 6.452 2.564 12.905 9.016 14.386 6.448 1.477 12.905-2.564 14.386-9.016l71.488-311.544c1.48-6.452-2.564-12.905-9.016-14.386-.9-.207-1.8-.306-2.686-.306zm-57.35 326.794h.01z" fill="#4939bb"/><path d="M614.068 278.218c-64.664-31.967-249.217 9.972-249.217 9.972-54.496-53.905-139.628-109.619-228.434-136.543-16.153-4.63-78.962 66.604-71.409 81.689 9.225 16.229 32.229 36.457 54.96 33.805 44.759 100.656 205.641 234.929 423.934 165.993 122.452-38.67 134.829-122.949 70.166-154.916z" fill="#1f201b"/><path d="M502.797 700.24c-61.828 61.276-152.437 162.262-114.421 265.088s265.816 115.5 265.816 115.5c10.304-26.553 18.894-93.972 13.548-131.658-26.065-22.184-98.818-44.939-140.826-39.935-5.08.605 92.629-111.14 145.172-168.81-.001.001-107.461-101.461-169.289-40.185z" fill="#feecf8"/><path d="M654.192 1083.329c-.046 0-.093-.001-.14-.004-.572-.032-57.907-3.366-119.142-19.267-36.047-9.36-66.404-21.186-90.228-35.146-30.042-17.605-49.776-38.706-58.652-62.717-16.938-45.816-10.232-96.355 19.933-150.213 25.988-46.4 64.46-87.177 95.074-117.517l1.76 1.776-1.76-1.776c26.122-25.889 64.411-27.042 110.728-3.335 34.512 17.664 61.765 43.223 62.036 43.479a2.5 2.5 0 0 1 .132 3.501c-51.703 56.75-128.704 145.109-142.656 164.209 19.442-1.346 45.589 2.323 72.732 10.291 28.033 8.228 52.462 19.689 65.35 30.658.465.396.77.948.855 1.553 5.367 37.833-3.187 105.841-13.693 132.914a2.5 2.5 0 0 1-2.329 1.594zM551.316 683.072c-18.35 0-34.064 6.362-46.759 18.944-30.381 30.11-68.547 70.552-94.23 116.409-29.417 52.522-36.014 101.656-19.606 146.037 8.462 22.889 27.458 43.116 56.459 60.118 23.414 13.727 53.329 25.375 88.914 34.62 54.65 14.199 106.181 18.309 116.408 19.015 9.914-27.355 17.787-91.205 12.893-127.746-25.79-21.236-96.709-43.689-138.186-38.749-1.126.133-2.181-.417-2.689-1.404-.936-1.819-1.323-2.572 15.065-22.441 8.992-10.902 22.122-26.332 37.97-44.62 29.364-33.885 64.843-73.909 91-102.663-6.577-5.895-30.294-26.299-59.153-41.054-19.752-10.099-38-15.607-54.235-16.373a79.305 79.305 0 0 0-3.851-.093z" fill="#4939bb"/><path d="M544.965 663.578C470.088 715.465 403.56 796.148 383.139 880.7c-7.475 11.483 119.191 37.094 184.697 30.364l128.83-148.983c12.533-62.303-51.346-88.92-151.701-98.503z" fill="#4939bb"/><path d="M543.629 914.654c-25.325 0-56.768-2.863-88.812-8.242-18.584-3.119-35.974-6.901-48.966-10.649-21.522-6.208-23.976-10.227-24.782-11.547-.89-1.458-.983-3.05-.278-4.442 9.787-40.267 30.825-82.241 60.856-121.406 28.084-36.625 63.318-70.113 101.895-96.845a2.504 2.504 0 0 1 1.662-.434c76.923 7.346 124.094 24.088 144.207 51.184 10.351 13.945 13.617 30.868 9.708 50.301a2.502 2.502 0 0 1-.56 1.142l-128.83 148.983a2.5 2.5 0 0 1-1.636.852c-7.214.741-15.453 1.103-24.464 1.103zm-158.224-32.9c2.162 3.575 24.959 12.021 68.797 19.483 43.036 7.326 84.932 10.091 112.394 7.438l127.745-147.729c3.474-17.954.544-32.906-8.948-45.694-19.143-25.79-64.862-41.854-139.756-49.099-37.86 26.353-72.435 59.276-100.024 95.256-29.694 38.726-50.458 80.178-60.045 119.876-.038.163-.093.32-.163.469zm-2.266-1.054h.01z" fill="#4939bb"/><path d="m651.474 741.287 106.468 251.712c6.128 12.255 179.113-54.329 170.808-72.848l-90.86-202.61c-110.946-49.732-217.272-94.004-186.416 23.746z" fill="#4939bb"/><path d="M762.698 996.965c-5.568 0-6.452-1.769-6.992-2.848a3.743 3.743 0 0 1-.066-.144L649.171 742.261a2.724 2.724 0 0 1-.116-.34c-9.163-34.968-6.926-57.635 6.839-69.296 13.51-11.446 37.019-11.721 73.987-.865 32.101 9.426 69.892 25.955 109.032 43.499.56.251 1.008.699 1.259 1.258l90.86 202.61c2.226 4.963-.239 14.133-47.137 36.36-23.822 11.291-54.389 23.437-79.772 31.699-23.416 7.622-35.276 9.779-41.425 9.779zm-2.594-5.273c3.621 1.88 28.276-3.041 72.913-20.069 40.751-15.546 75.388-32.584 88.24-43.406 4.797-4.04 5.534-6.328 5.213-7.043l-90.471-201.742c-66.559-29.833-148.981-66.621-176.873-42.992-11.958 10.13-13.734 31.675-5.279 64.041z" fill="#4939bb"/><path d="m801.975 965.366 134.409 269.33c39.612-.745 75.928-14.823 109.336-40.669-9.302-91.408-37.774-163.253-89.114-211.76l-27.856-62.115c-39.924 6.651-88.084 24.591-126.775 45.214z" fill="#feecf8"/><path d="M936.384 1237.195a2.499 2.499 0 0 1-2.236-1.384l-134.409-269.33a2.5 2.5 0 0 1 1.061-3.322c41.397-22.066 89.076-39.066 127.54-45.475a2.5 2.5 0 0 1 2.692 1.443l27.653 61.664c25.281 23.991 45.653 54.373 60.552 90.31 14.499 34.969 24.246 76.241 28.971 122.672a2.5 2.5 0 0 1-.958 2.23c-34.378 26.596-71.663 40.455-110.819 41.191l-.047.001zM805.302 966.434l132.61 265.725c37.069-1.042 72.439-14.246 105.178-39.264-4.727-45.38-14.304-85.708-28.472-119.879-14.699-35.453-34.795-65.374-59.729-88.932a2.512 2.512 0 0 1-.564-.794l-27.063-60.348c-36.449 6.37-82.753 22.883-121.96 43.492z" fill="#4939bb"/><path d="M862.496 741.287c10.617 14.74 32.808 62.52 35.464 90.528-97.124-36.689-209.464-111.242-302.819-181.057z" fill="#feecf8"/><path d="M897.96 834.315c-.298 0-.597-.053-.883-.161-81.627-30.835-183.717-91.864-303.433-181.393a2.5 2.5 0 0 1 2.299-4.37l267.355 90.528c.494.167.922.484 1.227.907 11.012 15.29 33.237 63.416 35.924 91.753a2.499 2.499 0 0 1-2.489 2.736zM609.361 658.213c111.986 82.717 207.99 139.789 285.606 169.782-4.094-27.132-23.932-70.104-34.042-84.601z" fill="#4939bb"/><path d="M879.045 1324.69c25.472-19.528 43.988-32.396 72.869-38.284 0 0 43.974 34.228 83.913 26.058 35.131-7.186 42.295-47.108 42.295-47.108 28.382 30.414 37.13 68.555 35.664 110.717H792.814c1.597-26.475 38.325-67.629 86.231-51.383z" fill="#1f201b"/><path d="M793.479 1405.084h319.641c8.011 0 14.505-6.494 14.505-14.505 0-8.011-6.494-14.505-14.505-14.505H793.479c-8.011 0-14.505 6.494-14.505 14.505 0 8.011 6.494 14.505 14.505 14.505z" fill="#feecf8"/><path d="M1113.12 1407.583H793.479c-9.376 0-17.005-7.628-17.005-17.005s7.628-17.005 17.005-17.005h319.641c9.376 0 17.005 7.628 17.005 17.005s-7.628 17.005-17.005 17.005zm-319.641-29.009c-6.62 0-12.005 5.385-12.005 12.005s5.385 12.005 12.005 12.005h319.641c6.62 0 12.005-5.385 12.005-12.005s-5.385-12.005-12.005-12.005z" fill="#4939bb"/><path d="M600.351 121.724c-9.993-14.308-4.859-27.576 8.996-30.64-11.106-36.778 34.851-51.702 65.49-16.851 62.808-21.447 90.766 26.039 67.404 49.404 10.747 3.816 14.17 12.548 0 17.234 35.234 22.596 11.489 66.255-21.064 54.766 6.511 11.872-7.66 16.085-15.284 10.183 4.178 16.448-18.854 25.153-35.791 15.102zm10.789 204.892s-22.213-40.79 0-65.872 51.824-4.596 51.824-4.596z" fill="#1f201b"/><path d="M723.756 261.588c95.829 15.488 162.867 200.22 131.846 378.305 46.723 31.42 30.881 88.629 6.894 101.395l-317.531-77.709c-34.468-22.549-40.937-237.846 24.762-325.856 32.03-40.988 100.165-84.841 154.029-76.135z" fill="#1f201b"/><path d="M611.142 329.116a2.498 2.498 0 0 1-2.197-1.304c-.602-1.105-14.675-27.348-8.724-51.338a2.499 2.499 0 1 1 4.852 1.204c-5.477 22.08 8.125 47.49 8.263 47.744a2.501 2.501 0 0 1-2.194 3.694z" fill="#4939bb"/><path d="M616.522 103.335c-58.213 61.663-72.026 119.876 2.017 122.429 0 0 11.234 43.874 16.34 69.957 2.042 27.192 51.064-19.404 53.106-36.766l-17.872-54.128c11.425 5.553 23.161-.954 24.511-10.723 1.552-11.234-9.447-13.021-14.265-10.186-17.395-4.524-26.305-23.516-9.071-32.707-22.596-1.149-34.085-33.702-21.83-45.957-6.128 6.128-27.192 3.064-32.936-1.919z" fill="#feecf8"/><path d="m641.894 306.553-.247-.002c-3.147-.066-8.517-1.522-9.249-10.489-4.461-22.743-13.667-59.37-15.823-67.875-26.116-1.249-42.475-9.481-48.64-24.484-9.56-23.265 7.487-60.473 46.769-102.083a2.5 2.5 0 0 1 3.456-.172c4.902 4.252 24.513 7.058 29.53 2.04a2.498 2.498 0 0 1 3.535 0 2.498 2.498 0 0 1 0 3.535c-4.764 4.765-5.595 14.126-2.066 23.297 3.275 8.513 10.842 17.816 22.256 18.396a2.5 2.5 0 0 1 1.049 4.702c-5.676 3.027-8.478 7.434-7.889 12.41.779 6.583 7.24 12.954 15.519 15.422 3.744-1.66 8.836-1.268 12.319 1.055 2.176 1.451 5.679 4.958 4.686 12.143-.737 5.332-4.048 9.932-9.085 12.622-4.249 2.27-9.132 2.864-13.939 1.788l16.283 49.315c.114.346.151.713.109 1.076-.992 8.43-10.966 21.028-19.206 29.255-4.261 4.255-18.895 18.048-29.367 18.049zM616.868 106.62c-36.293 38.915-52.845 74.407-44.309 95.182 5.497 13.378 20.996 20.6 46.065 21.464a2.5 2.5 0 0 1 2.336 1.878c.112.439 11.31 44.242 16.372 70.097.019.097.032.195.04.293.445 5.934 3.203 5.992 4.38 6.017 5.6.083 15.769-6.394 25.978-16.586 9.505-9.491 16.67-19.959 17.696-25.786l-17.687-53.567a2.502 2.502 0 0 1 3.467-3.033c4.858 2.362 10.127 2.39 14.454.079 3.608-1.927 5.973-5.169 6.487-8.896.473-3.419-.371-5.875-2.507-7.299-2.512-1.675-6.116-1.508-8.013-.391a2.499 2.499 0 0 1-1.897.265c-10.79-2.806-19.063-10.999-20.119-19.923-.614-5.191 1.293-9.998 5.333-13.77-10.326-3.083-17.222-12.138-20.451-20.531-2.956-7.681-3.281-15.401-1.162-21.5-8.57 1.618-20.401-.445-26.463-3.993z" fill="#4939bb"/><path d="M601.061 184.213c-1.945 0-3.799-.346-5.497-1.046-2.951-1.218-6.809-4.079-8.432-10.792a2.5 2.5 0 0 1 4.861-1.175c.906 3.746 2.75 6.217 5.48 7.344 3.372 1.393 7.877.612 12.36-2.14a2.499 2.499 0 1 1 2.616 4.26c-3.818 2.344-7.759 3.549-11.388 3.549z" fill="#4939bb"/><path d="M627.703 304.093c54.009-93.749 162.096-65.271 187.061-28.055 15.944 23.769 6.591 44.449-8.66 56.329-7.871 6.132-178.401-28.274-178.401-28.274z" fill="#1f201b"/><path d="M469.559 292.914c32.078 36.902 69.349 91.939 98.276 133.277 0 0 43.304-165.447 140.702-165.447 71.617 0 80.519 49.06 51.174 131.764s-108.49 208.061-204.749 197.598C449.26 578.617 406.006 447.193 401.005 396.319c-25.576-7.351-35.474-31.021-35.474-31.021-15.078-21.576 88.071-95.66 104.028-72.384z" fill="#1f201b"/><path d="M566.389 593.226c-3.9 0-7.798-.211-11.695-.635-58.476-6.356-95.688-48.814-116.609-83.314-23.027-37.973-36.272-82.737-39.393-111.05-24.143-7.736-34.184-29.045-35.361-31.722-2.574-3.882-2.401-8.987.515-15.179 5.453-11.575 20.586-26.896 40.482-40.985 20.044-14.193 39.591-23.277 52.288-24.3 7.011-.566 12.032 1.23 14.92 5.334 27.717 31.905 58.644 76.352 85.936 115.574 3.092 4.443 6.12 8.795 9.069 13.021 2.442-10.59 7.049-24.119 13.04-38.169 5.854-13.729 15.84-34.532 30.17-55.677 21.265-31.378 55.643-68.647 98.831-67.88 36.611.632 62.588 19.832 77.933 35.826 16.56 17.261 24.407 34.138 24.733 34.848a2.5 2.5 0 0 1-4.543 2.087c-.077-.167-7.891-16.933-23.911-33.591-21.341-22.191-46.338-33.687-74.298-34.17-22.54-.391-57.333 10.689-94.605 65.687-23.467 34.627-39.972 76.169-43.588 97.675a2.499 2.499 0 0 1-4.514 1.019 8219.86 8219.86 0 0 1-12.421-17.819c-27.248-39.159-58.131-83.543-85.694-115.251a2.443 2.443 0 0 1-.175-.227c-1.787-2.607-5.313-3.716-10.481-3.302-24.746 1.994-77.769 39.336-88.647 62.432-2.153 4.572-2.418 8.074-.788 10.407.102.146.188.303.257.468.094.223 9.796 22.667 33.858 29.583a2.5 2.5 0 0 1 1.797 2.158c2.717 27.636 15.788 72.555 38.866 110.611 20.336 33.536 56.427 74.8 112.874 80.935 33.229 3.609 66.79-9 99.747-37.487 34.177-29.541 59.495-69.072 74.715-97.033a2.5 2.5 0 0 1 4.391 2.391c-15.419 28.325-41.092 68.394-75.837 98.426-30.223 26.12-61.07 39.309-91.862 39.309z" fill="#4939bb"/><path d="m484.031 271.886-14.472 21.028c-16.979 23.234-53.785 51.691-81.723 58.617 0 0-37.993-2.546-23.805-65.083 14.187-62.537 38.372-103.106 61.277-127.915 14.862-16.097 34.934-13.398 34.723 13.923-.114 14.785-21.322 54.365-26.362 73.779 35.195-49.751 46.702-24.476 50.362 25.651z" fill="#feecf8"/><path d="M387.836 354.031c-.056 0-.111-.002-.167-.005-.504-.034-12.445-.96-21.001-12.443-9.008-12.089-10.715-30.825-5.075-55.688 15.421-67.978 42.161-107.703 61.877-129.058 8.422-9.123 18.69-12.798 26.797-9.592 4.638 1.834 12.399 7.551 12.263 25.229-.07 9.094-7.388 26.358-14.466 43.054-2.533 5.977-4.997 11.789-7.088 17.099 10.672-12.535 19.279-17.473 26.628-15.426 10.545 2.935 16.38 19.744 18.918 54.503a2.495 2.495 0 0 1-.434 1.6l-14.472 21.028c-16.832 23.035-54.247 52.454-83.181 59.626a2.5 2.5 0 0 1-.599.073zm56.252-202.936c-5.355 0-11.503 3.24-16.944 9.133C407.841 181.135 381.646 220.1 366.469 287c-5.302 23.373-3.887 40.731 4.208 51.594 6.435 8.636 15.138 10.171 16.977 10.404 27.822-7.091 63.694-35.403 79.887-57.561l13.932-20.245c-2.298-30.462-7.414-47.007-15.208-49.176-4.728-1.316-13.866 2.068-30.556 25.661a2.5 2.5 0 0 1-4.461-2.073c2.156-8.304 7.041-19.829 12.213-32.029 6.886-16.245 14.007-33.042 14.069-41.141.083-10.734-3.235-18.221-9.102-20.542-1.358-.535-2.818-.797-4.34-.797z" fill="#4939bb"/><path d="M484.031 271.886s34.989-60.011 38.043-99.431c2.681-34.604-20.084-59.274-39.587-61.795-26.668-3.447-31.881 20-12.732 32.255-30.255-11.489-36.383 17.617-19.404 31.54-23.489-3.582-32.068 21.311-8.681 39.537-31.66-7.607-30.277 24.2 2.77 41.881z" fill="#feecf8"/><path d="M484.029 274.386a2.5 2.5 0 0 1-2.157-3.76c.087-.149 8.809-15.16 17.783-34.759 11.811-25.793 18.701-47.788 19.927-63.606 2.681-34.608-20.421-56.926-37.415-59.123-10.458-1.351-18.398 1.771-20.718 8.148-1.96 5.387.265 13.513 9.654 19.522a2.5 2.5 0 0 1-2.235 4.442c-11.209-4.256-19.787-2.985-23.536 3.49-3.544 6.121-2.043 16.689 6.604 23.78a2.5 2.5 0 0 1-1.962 4.404c-8.859-1.348-15.771 1.612-18.49 7.927-2.682 6.228-1.221 17.079 11.723 27.167a2.5 2.5 0 0 1-2.12 4.403c-10.169-2.442-17.174-.77-19.214 4.591-3.033 7.971 5.184 22.722 23.747 32.654a2.499 2.499 0 1 1-2.358 4.408c-22.04-11.791-29.877-28.812-26.062-38.84 2.3-6.045 8.38-9.129 16.837-8.853-9.425-10.269-10.007-20.861-7.145-27.508 2.88-6.687 9.247-10.696 17.307-11.207-5.969-7.781-7.487-18.019-3.194-25.433 3.711-6.409 10.72-9.238 19.581-8.215-4.481-5.721-6.02-12.438-3.835-18.443 3.783-10.398 15.942-12.704 26.058-11.398 10.69 1.382 21.838 8.815 29.82 19.884 8.963 12.43 13.204 28.264 11.939 44.584-3.063 39.537-36.935 98.026-38.375 100.497a2.5 2.5 0 0 1-2.164 1.244z" fill="#4939bb"/><path d="M507.522 216.813a2.5 2.5 0 0 1-2.415-3.152c2.58-9.551 4.408-23.858-1.53-37.782-5.714-13.401-17.406-23.711-34.75-30.643a2.5 2.5 0 0 1 1.855-4.643c48.338 19.317 43.553 58.445 39.252 74.371a2.5 2.5 0 0 1-2.412 1.849zm-23.488 57.573a2.5 2.5 0 0 1-2.441-3.052c2.527-11.155.512-45.186-40.5-54.909a2.5 2.5 0 0 1 1.153-4.865c23.307 5.525 34.283 18.604 39.387 28.602 6.211 12.167 6.487 24.992 4.836 32.276a2.5 2.5 0 0 1-2.435 1.948zm9.315-25.651a2.5 2.5 0 0 1-2.315-3.44c5.115-12.611 4.644-26.74-1.292-38.764-6.969-14.117-20.82-24.375-40.054-29.666a2.5 2.5 0 0 1 1.326-4.822c26.089 7.175 37.898 21.511 43.211 32.274 6.567 13.302 7.092 28.923 1.442 42.855a2.5 2.5 0 0 1-2.318 1.563z" fill="#4939bb"/><path d="M52.294 93.496 5.872 117.052c-18.501 62.343 44.612 95.441 56.696 100.907s38.576 11.779 63.185-28.464c33.455-54.708 46.92-99.508 48.654-133.229 1.125-21.88-14.834-34.348-34.227-15.102-10.494 10.415-23.978 53.246-34.34 70.421z" fill="#feecf8"/><path d="M80.339 224.46c-7.419 0-13.905-2.009-18.801-4.224-8.022-3.629-77.804-37.374-58.063-103.896a2.5 2.5 0 0 1 1.265-1.518l46.422-23.557a2.499 2.499 0 0 1 1.931-.139l51.611 17.436c3.983-7.088 8.389-17.628 13.032-28.735 6.994-16.731 14.226-34.032 20.681-40.438 12.548-12.453 22.06-10.899 26.615-8.863 7.959 3.557 12.507 13.469 11.87 25.869-1.992 38.746-18.941 85.222-49.017 134.404-16.199 26.492-33.534 33.661-47.546 33.661zM7.97 118.791c-17.512 61.783 48.055 93.465 55.628 96.891 15.442 6.986 38.389 7.885 60.022-27.491 20.67-33.802 45.827-84.15 48.29-132.053.529-10.288-2.888-18.353-8.917-21.047-5.76-2.575-13.433.286-21.052 7.847-5.749 5.705-12.785 22.539-19.59 38.818-5.111 12.226-9.938 23.774-14.37 31.121a2.502 2.502 0 0 1-2.941 1.077L52.489 96.2z" fill="#4939bb"/><path d="M5.872 117.052s21.733-65.979 49.221-94.398C79.222-2.294 112.784-1.606 127.6 11.325c20.26 17.681 6.162 37.127-15.708 30.916 28.659 15.034 10.93 38.918-10.749 35.436 18.254 15.211 5.304 38.136-23.845 32.71 26.684 18.66 1.954 38.71-33.191 25.691z" fill="#feecf8"/><g fill="#4939bb"><path d="M65.614 142.787c-6.561 0-14.126-1.309-22.375-4.365a2.5 2.5 0 1 1 1.737-4.689c19.742 7.312 36.233 3.685 40.19-3.869 2.662-5.082-.728-11.434-9.3-17.429a2.5 2.5 0 0 1 1.89-4.507c16.133 3.002 25.226-3.097 28.111-9.233 2.925-6.222.561-13.362-6.323-19.099a2.5 2.5 0 0 1 1.997-4.389c11.041 1.774 19.949-4.108 22.182-10.82 2.362-7.099-2.373-14.364-12.99-19.934a2.5 2.5 0 0 1 1.845-4.619c10.723 3.045 18.281-.676 21.015-5.714 3.237-5.965.311-13.979-7.634-20.913C113.046 1.941 81.022-.56 56.889 24.392 30.11 52.079 8.462 117.18 8.246 117.835a2.5 2.5 0 1 1-4.749-1.565c.895-2.716 22.229-66.851 49.798-95.354C64.676 9.15 79.341 1.828 94.589.298c13.579-1.364 26.534 2.056 34.655 9.143 7.686 6.708 14.018 17.339 8.741 27.065-3.047 5.617-9.097 8.917-16.35 9.355 6.642 5.954 9.169 13.078 6.831 20.106-2.705 8.129-11.375 13.78-21.158 14.469 4.961 6.373 6.18 13.797 3.083 20.386-3.079 6.55-11.405 13.129-25.331 12.887 5.823 6.147 7.535 12.746 4.534 18.475-3.225 6.16-11.897 10.602-23.98 10.603z"/><path d="M33.401 63.799a2.5 2.5 0 0 1-2.086-3.876c9.072-13.778 35.192-43.302 81.701-19.917a2.5 2.5 0 1 1-2.246 4.466c-16.688-8.39-32.157-10.307-45.979-5.703-14.36 4.786-23.859 15.64-29.3 23.902a2.496 2.496 0 0 1-2.09 1.128zM5.869 119.552a2.5 2.5 0 0 1-2.028-3.959c4.36-6.065 14.144-14.36 27.371-17.777 10.87-2.809 27.937-3.26 47.525 10.526a2.5 2.5 0 1 1-2.878 4.088c-34.469-24.26-61.282-3.208-67.958 6.08a2.492 2.492 0 0 1-2.032 1.042zM18.896 95.57a2.5 2.5 0 0 1-2.238-3.612c6.685-13.467 18.728-23.43 33.04-27.332 11.581-3.158 30.142-3.82 52.81 10.956a2.5 2.5 0 0 1-2.731 4.188C83.066 68.877 66.204 65.309 51.014 69.45c-12.937 3.527-23.826 12.542-29.877 24.731a2.498 2.498 0 0 1-2.241 1.389zm354.648 265.522a2.499 2.499 0 0 1-1.109-4.742l14.294-7.062a2.5 2.5 0 1 1 2.214 4.483l-14.293 7.061c-.356.177-.734.26-1.106.26zm225.448 115.533a2.501 2.501 0 0 1-2.161-1.238c-.125-.213-12.655-21.58-31.041-47.759a2.5 2.5 0 0 1 4.092-2.874c18.513 26.36 31.14 47.895 31.266 48.109a2.5 2.5 0 0 1-2.156 3.762z"/></g><path d="M672.908 794.459c-.974 0-1.9-.573-2.304-1.526l-21.433-50.671a2.5 2.5 0 1 1 4.606-1.948l21.433 50.671a2.5 2.5 0 0 1-2.302 3.474z" fill="#feecf8"/><path d="M389.88 311.772a2.501 2.501 0 0 1-2.5-2.474c-.103-10.041 4.997-21.382 14.75-32.799 8.339-9.762 20.107-19.572 33.137-27.624a2.5 2.5 0 1 1 2.629 4.253c-21.129 13.058-45.727 35.589-45.516 56.118a2.5 2.5 0 0 1-2.474 2.526h-.026zM71.664 235.678h-.038a2.5 2.5 0 0 1 .007-5h.032c6.677 0 17.627-8.076 21.95-13.429a2.502 2.502 0 0 1 3.891 3.142c-4.176 5.17-16.422 15.287-25.842 15.287z" fill="#4939bb"/><path d="m766.746 989.458-2.576-4.285 36.518-21.95a2.5 2.5 0 0 1 2.577 4.285zm177.44 336.759a5.499 5.499 0 0 1-4.798-2.803l-18.222-32.373a5.5 5.5 0 0 1 9.586-5.396l18.222 32.373a5.5 5.5 0 0 1-4.788 8.199zm-50.251 25.103a5.499 5.499 0 0 1-4.798-2.803l-18.222-32.373a5.5 5.5 0 0 1 9.586-5.396l18.222 32.373a5.5 5.5 0 0 1-4.788 8.199zm-159.218-218.671a5.5 5.5 0 0 1-1.256-10.855l36.16-8.514a5.498 5.498 0 0 1 6.614 4.093 5.5 5.5 0 0 1-4.093 6.614l-36.16 8.514c-.423.1-.847.148-1.265.148zm10.159 55.245a5.502 5.502 0 0 1-1.256-10.855l36.16-8.514a5.498 5.498 0 0 1 6.614 4.093 5.5 5.5 0 0 1-4.093 6.614l-36.16 8.514c-.424.1-.848.148-1.265.148z" fill="#feecf8"/></svg></g><g transform="translate(268.75 347.5) rotate(0.0 668.75 668.75) scale(1.2448889745186351 1.2448889745186351)"><svg width="1074.393" height="1074.393" viewBox="0 0 1074.393 1074.393"><path d="M537.197 1074.393h-.036a2.5 2.5 0 0 1-2.456-2.29c-12.487-148.493-47.338-233.078-106.544-258.59-60.03-25.867-147.527 8.062-267.493 103.727a2.5 2.5 0 0 1-3.468-3.568c96.17-113.83 131.338-198.285 107.513-258.19-24.157-60.739-110.019-98.618-262.492-115.8a2.5 2.5 0 0 1 .07-4.976c148.493-12.487 233.078-47.338 258.59-106.544 25.867-60.031-8.062-147.528-103.727-267.493a2.5 2.5 0 0 1 3.568-3.468c113.83 96.171 198.285 131.338 258.189 107.513 60.739-24.157 98.618-110.019 115.8-262.492a2.5 2.5 0 0 1 2.484-2.22h.036a2.5 2.5 0 0 1 2.456 2.29c12.487 148.492 47.338 233.078 106.544 258.59 12.938 5.575 27.156 8.373 42.696 8.373 56.563.002 130.687-37.052 224.797-112.1a2.5 2.5 0 0 1 3.468 3.568c-96.17 113.83-131.338 198.284-107.513 258.189 24.157 60.739 110.019 98.618 262.492 115.8a2.5 2.5 0 0 1-.07 4.976c-148.493 12.487-233.078 47.338-258.591 106.544-25.867 60.031 8.062 147.528 103.727 267.493a2.5 2.5 0 0 1-3.568 3.468c-113.83-96.17-198.286-131.337-258.189-107.513-60.74 24.157-98.618 110.019-115.8 262.492a2.5 2.5 0 0 1-2.483 2.221zM385.348 800.041c16.192 0 31.06 2.962 44.791 8.879 57.873 24.938 93.084 103.455 107.377 239.729 8.749-66.247 21.572-117.985 39.037-157.665 19.851-45.102 45.064-73.216 77.08-85.95 58.555-23.29 138.974 7.333 245.442 93.587-40.657-53.03-68.174-98.682-83.883-139.089-17.855-45.929-19.907-83.637-6.272-115.279 24.937-57.872 103.455-93.084 239.73-107.377-66.247-8.749-117.986-21.572-157.665-39.037-45.103-19.851-73.217-45.064-85.95-77.08-23.289-58.555 7.333-138.973 93.587-245.441-53.031 40.657-98.682 68.174-139.09 83.883-45.929 17.856-83.637 19.907-115.279 6.272-57.872-24.938-93.083-103.455-107.377-239.73-8.749 66.248-21.572 117.986-39.037 157.666-19.852 45.102-45.064 73.217-77.08 85.95-58.556 23.29-138.974-7.333-245.441-93.587 40.657 53.03 68.174 98.682 83.883 139.089 17.855 45.929 19.907 83.637 6.272 115.279-24.938 57.873-103.455 93.084-239.729 107.377 66.247 8.749 117.985 21.572 157.665 39.037 45.102 19.851 73.216 45.064 85.95 77.08 23.289 58.555-7.333 138.974-93.587 245.442 53.031-40.657 98.682-68.174 139.089-83.883 25.997-10.108 49.367-15.152 70.487-15.152z" fill="#4939bb"/></svg></g><g transform="translate(852.5 905.0) rotate(0.0 701.875 939.375) scale(1.2457933673650505 1.2459000521238826)"><svg width="1126.792" height="1507.946" viewBox="0 0 1126.792 1507.946"><path d="M60.959 1505.446 2.5 1479.79 650.833 2.5h15l43.459 25.656-633.333 1477.29z" fill="#feecf8"/><path d="M75.959 1507.946h-15c-.346 0-.688-.072-1.005-.211l-58.459-25.656a2.499 2.499 0 0 1-1.284-3.294L648.544 1.495A2.5 2.5 0 0 1 650.833 0h15c.447 0 .886.12 1.271.347l43.459 25.656a2.5 2.5 0 0 1 1.027 3.138L78.257 1506.431a2.502 2.502 0 0 1-2.298 1.515zm-14.476-5H74.31L706.128 29.191 665.15 5h-12.684L5.794 1478.505z" fill="#4939bb"/><path d="m665.836 2.51 58.46 25.658L75.912 1505.462l-58.459-25.657z" fill="#feecf8"/><path d="M75.959 1507.946a2.49 2.49 0 0 1-1.005-.211l-58.459-25.656a2.499 2.499 0 0 1-1.284-3.294L663.544 1.495a2.498 2.498 0 0 1 3.294-1.284l58.459 25.656a2.5 2.5 0 0 1 1.285 3.293L78.248 1506.451a2.498 2.498 0 0 1-2.289 1.495zm-55.165-29.441 53.881 23.646L720.998 29.44l-53.88-23.646z" fill="#4939bb"/><path d="M627.625 1113.681H241.949l-40-24.543h385.676z" fill="#feecf8"/><path d="M627.625 1116.181H241.949c-.461 0-.914-.128-1.307-.369l-40-24.543a2.5 2.5 0 0 1 1.307-4.631h385.676c.461 0 .914.128 1.307.369l40 24.543a2.5 2.5 0 0 1-1.307 4.631zm-384.97-5H618.77l-31.851-19.543H210.804z" fill="#4939bb"/><path d="M593.307 1076.213H207.632l-5.683 12.925h385.676z" fill="#feecf8"/><path d="M587.625 1091.638H201.949a2.502 2.502 0 0 1-2.289-3.506l5.682-12.925a2.5 2.5 0 0 1 2.289-1.494h385.676a2.502 2.502 0 0 1 2.289 3.506l-5.682 12.925a2.5 2.5 0 0 1-2.289 1.494zm-381.846-5h380.214l3.484-7.925H209.264z" fill="#4939bb"/><path d="M793.18 736.941H407.504l-40-24.542H753.18z" fill="#feecf8"/><path d="M793.18 739.441H407.504c-.461 0-.914-.128-1.307-.369l-40-24.542a2.5 2.5 0 0 1 1.307-4.631H753.18c.461 0 .914.128 1.307.369l40 24.542a2.5 2.5 0 0 1-1.307 4.631zm-384.97-5h376.115l-31.851-19.542H376.359z" fill="#4939bb"/><path d="M758.862 699.473H373.186l-5.682 12.926H753.18z" fill="#feecf8"/><path d="M753.18 714.899H367.504a2.502 2.502 0 0 1-2.289-3.506l5.682-12.925a2.5 2.5 0 0 1 2.289-1.494h385.676a2.502 2.502 0 0 1 2.289 3.506l-5.682 12.925a2.502 2.502 0 0 1-2.289 1.494zm-381.846-5h380.214l3.484-7.925H374.818z" fill="#4939bb"/><path d="M958.734 360.202H573.058l-40-24.542h385.676z" fill="#feecf8"/><path d="M958.734 362.702H573.058c-.461 0-.914-.128-1.307-.369l-40-24.542a2.5 2.5 0 0 1 1.307-4.631h385.676c.461 0 .914.128 1.307.369l40 24.542a2.5 2.5 0 0 1-1.307 4.631zm-384.97-5h376.115l-31.851-19.542H541.913z" fill="#4939bb"/><path d="M924.416 322.734H538.741l-5.683 12.926h385.676z" fill="#feecf8"/><path d="M918.734 338.16H533.058a2.502 2.502 0 0 1-2.289-3.506l5.682-12.925a2.5 2.5 0 0 1 2.289-1.494h385.676a2.502 2.502 0 0 1 2.289 3.506l-5.682 12.925a2.5 2.5 0 0 1-2.289 1.494zm-381.846-5h380.214l3.484-7.925H540.372z" fill="#4939bb"/><path d="M460.959 1505.446 402.5 1479.79 1050.833 2.5h15l43.459 25.656-633.333 1477.29z" fill="#feecf8"/><path d="M475.959 1507.946h-15c-.346 0-.688-.072-1.005-.211l-58.459-25.656a2.499 2.499 0 0 1-1.284-3.294L1048.544 1.495A2.5 2.5 0 0 1 1050.833 0h15c.447 0 .886.12 1.271.347l43.459 25.656a2.5 2.5 0 0 1 1.027 3.138l-633.333 1477.29a2.502 2.502 0 0 1-2.298 1.515zm-14.476-5h12.827L1106.128 29.191 1065.15 5h-12.684L405.794 1478.505z" fill="#4939bb"/><path d="m1065.837 2.523 58.46 25.657-648.384 1477.295-58.459-25.658z" fill="#feecf8"/><path d="M475.959 1507.946a2.49 2.49 0 0 1-1.005-.211l-58.459-25.656a2.499 2.499 0 0 1-1.284-3.294L1063.544 1.495a2.498 2.498 0 0 1 3.294-1.284l58.459 25.656a2.5 2.5 0 0 1 1.285 3.293L478.248 1506.451a2.498 2.498 0 0 1-2.289 1.495zm-55.165-29.441 53.881 23.646L1120.998 29.44l-53.88-23.646z" fill="#4939bb"/></svg></g><g transform="translate(717.5 667.5) rotate(0.0 658.125 805.0) scale(1.2506461077707762 1.25073024001591)"><svg width="1052.456" height="1287.248" viewBox="0 0 1052.456 1287.248"><path d="m663.038 771.916-72.961 104.466c-8.593 32.629-10.832 64.773-6.175 96.389-43.52 55.026-23.332 111.96 35.043 136.456 56.222-89.316 102.683-188.077 141.938-293.812-24.523-24.844-54.102-38.973-97.845-43.499z" fill="#0fb3e3"/><path d="m798.991 823.433-30.29-14.633a4.162 4.162 0 0 0-5.559 1.938l-145.159 300.48a4.162 4.162 0 0 0 1.938 5.559l30.29 14.633c2.07 1 4.559.133 5.559-1.938l84.002-173.884a4.167 4.167 0 0 0 .374-2.388l-6.176-44.1 19.209 9.197a4.163 4.163 0 0 0 5.546-1.944l42.204-87.362c1-2.069.133-4.558-1.938-5.558z" fill="#0fb3e3"/><path d="m520.721 764.229 67.399 133.65 89.52-123.375-36.092-71.767z" fill="#1f201b"/><path d="M242.782 594.927c-7.049 15.075-46.062 61.151-95.338 91.901-18.903 11.796-45.407 23.313-60.006 27.119-19.505 5.086-38.185-.962-28.74-17.997-24.299 19.075-39.105 2.333-32.457-12.661-20.34 10.151-27.298-14.07-9.854-29.417-21.166 1.798-15.199-18.862-1.598-31.462 15.68-14.526 37.523-25.124 64.936-32.155 19.447-13.131 42.569-17.987 71.13-26.055l42.846-26.848c21.934 2.724 27.392 44.814 49.081 57.575z" fill="#fff"/><path d="M74.588 718.19c-8.298 0-15.102-2.328-18.486-6.691-1.551-2-2.88-5.005-2.304-9.19-9.908 5.726-19.152 6.287-25.562 1.298-4.797-3.733-6.888-9.821-5.846-16.139-6.741 1.873-12.464.212-15.837-4.803-4.208-6.254-3.497-17.13 4.059-26.4-5.803-.817-8.431-3.792-9.617-6.477-3.705-8.388 3.28-21.045 12.096-29.211 15.583-14.437 37.651-25.416 65.596-32.635 16.656-11.135 36.041-16.427 58.459-22.547 4.106-1.121 8.333-2.275 12.686-3.502l42.542-26.658a2.505 2.505 0 0 1 1.635-.363c13.135 1.631 20.445 15.105 28.186 29.371 6.141 11.317 12.49 23.02 21.855 28.53a2.501 2.501 0 0 1 .997 3.214c-7.576 16.203-47.321 62.412-96.28 92.963-19.971 12.463-46.545 23.727-60.699 27.417-4.708 1.228-9.285 1.823-13.48 1.823zm-15.89-24.739a2.498 2.498 0 0 1 2.187 3.712c-2.648 4.777-2.928 8.569-.832 11.271 3.766 4.854 15.018 6.155 26.754 3.094 13.492-3.518 40.006-14.773 59.313-26.821 46.284-28.883 84.033-71.659 93.409-88.895-9.433-6.524-15.677-18.032-21.729-29.185-6.918-12.75-13.461-24.811-23.558-26.663l-42.059 26.355a2.474 2.474 0 0 1-.648.287c-4.49 1.268-8.845 2.457-13.073 3.612-22.153 6.048-41.285 11.271-57.338 22.11-.237.16-.5.279-.778.35-27.328 7.009-48.813 17.63-63.858 31.567-8.339 7.725-13.237 18.277-10.92 23.523 1.589 3.597 6.646 3.951 10.607 3.614a2.5 2.5 0 0 1 1.863 4.368c-9.145 8.045-10.929 18.786-7.338 24.124 2.682 3.986 7.939 4.415 14.424 1.178a2.501 2.501 0 0 1 3.402 3.25c-2.602 5.868-1.485 12.04 2.78 15.358 5.854 4.555 15.516 2.434 25.848-5.677a2.502 2.502 0 0 1 1.544-.532z" fill="#4939bb"/><path d="M183.245 543.8c-14.565-5.554-112.309 1.764-135.303 15.845-18.892 11.569.417 26.173 11.427 28.883 32.046 7.887 63.708 4.443 82.275-6.496 0 0 54.448-33.333 41.601-38.232z" fill="#fff"/><g fill="#4939bb"><path d="M94.229 595.285c-11.549 0-23.637-1.421-35.457-4.33-7.956-1.958-19.726-9.494-21.133-18.55-.607-3.908.461-9.665 8.998-14.892 14.951-9.156 55.242-13.988 71.871-15.641 25.482-2.533 56.888-3.74 65.628-.407a2.5 2.5 0 0 1-1.782 4.672c-14.347-5.472-111.68 2.52-133.106 15.641-4.968 3.042-7.212 6.36-6.668 9.86 1.019 6.56 10.813 12.845 17.386 14.463 29.928 7.366 61.49 4.924 80.408-6.222a2.5 2.5 0 1 1 2.538 4.308c-12.395 7.302-29.816 11.098-48.683 11.098zM58.696 698.451a2.501 2.501 0 0 1-1.978-4.028c11.868-15.378 44.07-29.515 59.16-31.178a2.501 2.501 0 0 1 .548 4.97c-14.314 1.578-44.985 15.315-55.75 29.263a2.493 2.493 0 0 1-1.98.973zm-32.455-12.662a2.5 2.5 0 0 1-1.885-4.141c23.321-26.799 66.456-42.47 78.696-44.855a2.499 2.499 0 1 1 .956 4.908c-11.808 2.3-53.41 17.408-75.88 43.229a2.492 2.492 0 0 1-1.887.859zm-9.852-29.416a2.5 2.5 0 0 1-1.651-4.378c24.846-21.834 56.743-35.349 76.509-40.289a2.5 2.5 0 0 1 1.213 4.851c-19.223 4.803-50.248 17.95-74.421 39.193a2.494 2.494 0 0 1-1.65.623z"/></g><path d="M861.559 356.034s3.517 123.403-93.277 163.079c-29.431 12.064-104.224 17.787-181.901 25.265 14.411 23.628 63.433 106.352 89.332 163.163 19.851 43.545-8.783 94.399-54.383 108.924-14.435 4.598-29.248 8.907-44.113 12.667-43.426 10.985-83.475-15.262-101.645-56.205-27.206-61.304-109.929-205.304-98.057-279.602 16.899-105.756 197.522-127.676 275.499-122.999 89.586-55.158 169.364-85.693 208.545-14.292z" fill="#feecf8"/><path d="M557.299 834.153c-14.41 0-28.529-3.864-41.633-11.489-18.045-10.5-33.096-27.804-42.379-48.722-5.356-12.07-12.807-27.224-21.434-44.77-34.428-70.023-86.458-175.842-76.806-236.241 9.443-59.093 68.596-89.662 116.557-104.9 58.009-18.431 122.641-22.426 160.771-20.246 75.905-46.65 126.268-63.095 163.24-53.319 20.169 5.333 36.364 18.914 48.135 40.365.191.347.296.735.307 1.131.036 1.277.762 31.681-10.454 67.48-10.397 33.184-33.475 77.12-84.373 97.984-26.162 10.724-85.503 16.298-154.215 22.751-8.068.758-16.227 1.524-24.427 2.308 21.332 35.202 64.285 109.315 87.4 160.019 8.965 19.665 8.83 41.933-.38 62.704-10.331 23.3-31.086 41.856-55.519 49.639-15.316 4.878-30.207 9.154-44.259 12.709-6.856 1.735-13.726 2.597-20.531 2.597zm74.882-461.909c-38.013 0-90.847 5.233-139.062 20.552-46.621 14.812-104.093 44.345-113.134 100.924-9.401 58.83 42.206 163.791 76.356 233.246 8.65 17.593 16.121 32.787 21.517 44.947 8.86 19.964 23.18 36.453 40.323 46.429 18.137 10.554 38.339 13.447 58.423 8.367 13.955-3.53 28.748-7.778 43.968-12.626 23.092-7.355 42.705-24.888 52.465-46.901 8.622-19.446 8.765-40.258.401-58.604-23.792-52.189-68.746-129.376-89.191-162.899a2.502 2.502 0 0 1 1.895-3.791c9.538-.918 19.033-1.81 28.406-2.69 65.472-6.149 127.313-11.958 152.786-22.399 21.641-8.871 39.92-22.79 54.329-41.37 11.566-14.915 20.692-32.861 27.125-53.341 10.158-32.338 10.322-60.961 10.281-65.394-11.205-20.165-25.843-32.401-44.731-37.396-45.687-12.082-109.511 22.062-160.012 53.156a2.51 2.51 0 0 1-1.46.367c-6.212-.371-13.161-.577-20.685-.577z" fill="#4939bb"/><path d="m681.761 1054.502-126.526 15.09c-30.07 15.307-55.548 35.032-76.041 59.554-70.033 4.151-99.082 57.115-78.505 116.984 104.078-17.497 208.706-48.566 313.742-89.654 2.217-34.839-6.929-66.318-32.67-101.974z" fill="#1f201b"/><path d="m733.814 1190.251-9.243-32.345a4.162 4.162 0 0 0-5.146-2.859l-320.863 91.689a4.162 4.162 0 0 0-2.859 5.146l9.243 32.345a4.163 4.163 0 0 0 5.147 2.859l185.679-53.059a4.157 4.157 0 0 0 2.031-1.31l28.799-33.964 5.923 20.457a4.163 4.163 0 0 0 5.143 2.845l93.288-26.658a4.162 4.162 0 0 0 2.858-5.146zM592.764 943.18l-54.873 139.261 151.659-15.319 29.532-74.706z" fill="#1f201b"/><path d="M598.917 1016.909a4.999 4.999 0 0 0-3.312-6.175l-27.732-8.641a5 5 0 0 0-2.975 9.547l27.732 8.641a5 5 0 0 0 6.261-3.286l.026-.086z" fill="#0fb3e3"/><path d="M573.302 1074.184a4.992 4.992 0 0 0-2.235-4.046l-25.969-17.231a5 5 0 1 0-5.529 8.333l25.969 17.231a5 5 0 0 0 7.764-4.287zm-34.062 43.428a4.973 4.973 0 0 0-1.01-1.716l-24.457-27.242a5 5 0 0 0-7.442 6.68l24.457 27.242a5 5 0 0 0 8.452-4.964zm-45.264 30.361a4.974 4.974 0 0 0-.356-.86l-15.487-29.424a5.002 5.002 0 0 0-6.754-2.096 5 5 0 0 0-2.096 6.753l15.487 29.424a5.002 5.002 0 0 0 9.206-3.797zm329.616-857.532s122.286 51.551 122.286 156.161c0 80.884-124.214 379.765-186.557 542.792-9.788 25.595-33.401 43.313-60.717 45.489-33.466 2.666-75.188.571-109.811-4.801-33.406-5.183-53.289-40.071-40.612-71.41 59.1-146.096 132.078-313.894 205.038-465.346l-59.073-82.629z" fill="#feecf8"/><path d="M667.132 1038.551c-25.617 0-53.378-2.066-78.723-5.999-16.71-2.593-31.074-12.502-39.409-27.187-8.313-14.648-9.457-32.008-3.137-47.631 64.29-158.923 136.64-323.206 203.877-462.947l-21.176-7.169a2.5 2.5 0 1 1 1.604-4.736l23.853 8.075a2.504 2.504 0 0 1 1.451 3.453c-67.538 140.196-140.332 305.407-204.974 465.2-5.744 14.198-4.705 29.976 2.85 43.288 7.576 13.349 20.635 22.357 35.827 24.714 35.408 5.494 77.263 7.325 109.229 4.779 26.188-2.086 49.183-19.314 58.581-43.89 11.34-29.655 24.793-63.971 39.036-100.303 65.651-167.47 147.357-375.892 147.357-441.596 0-23.386-6.3-45.996-18.725-67.201-9.983-17.039-23.923-33.226-41.433-48.114-29.932-25.45-60.297-38.414-60.6-38.542a2.5 2.5 0 0 1 1.942-4.607c.309.13 31.279 13.337 61.79 39.25 40.577 34.462 62.024 75.685 62.024 119.215 0 66.649-81.897 275.559-147.702 443.421-14.239 36.321-27.688 70.629-39.021 100.264-10.083 26.367-34.754 44.85-62.854 47.088-9.906.788-20.586 1.175-31.667 1.175z" fill="#4939bb"/><path d="M441.614 153.958c-34.812 6.63-71.182-26.64-70.804-49.187.147-8.784 13.889-35.692 44.613-56.196C441.38 8.569 471.995-2.617 496.462.489c63.641 8.08 109.599 96.931 126.45 132.931 14.098 30.119-164.681 188.426-177.702 145.532s9.957-92.681-3.596-124.994z" fill="#1f201b"/><path d="M410.18 126.293c19.521 56.804 55.444 80.192 72.689 76.191 17.246-4.001 24.194-24.203 26.172-32.554l27.661 28.703c8.355 11.6 20.647 20.81 33.358 29.766l-.769-66.077c-15.924-15.641-27.891-22.826-42.89-39.625l-13.436-18.949c13.034-10.415 6.769-28.143-5.706-28.764-5.569-.277-10.732 4.576-10.192 12.51.001-.002-30.989 43.135-86.887 38.799z" fill="#fff"/><path d="M570.061 230.899c-.506 0-1.01-.154-1.44-.456-12.369-8.715-25.166-18.224-33.841-30.202l-24.495-25.417c-2.923 9.367-10.39 26.278-26.851 30.096-18.976 4.403-55.815-20.188-75.619-77.813a2.5 2.5 0 0 1 2.557-3.305c50.015 3.878 79.966-31.759 84.158-37.105-.075-4.246 1.297-8.007 3.912-10.67 2.371-2.414 5.626-3.708 8.94-3.54 6.6.329 12.255 4.852 14.408 11.522 1.821 5.641 1.213 13.671-5.485 20.13l12.052 16.998c8.546 9.556 16.083 15.945 24.061 22.708 5.836 4.947 11.87 10.062 18.624 16.695.471.463.74 1.094.748 1.755l.769 66.077a2.498 2.498 0 0 1-2.498 2.527zm-61.02-63.469a2.5 2.5 0 0 1 1.8.765l27.662 28.703a2.5 2.5 0 0 1 .229.274c7.318 10.161 18.001 18.612 28.772 26.344l-.7-60.13c-6.33-6.161-12.064-11.022-17.617-15.728-8.143-6.903-15.835-13.423-24.65-23.296a2.623 2.623 0 0 1-.175-.219l-13.436-18.949a2.5 2.5 0 0 1 .479-3.399c6.373-5.093 7.086-11.733 5.629-16.25-1.532-4.746-5.325-7.837-9.898-8.064-1.918-.093-3.733.633-5.124 2.05-1.797 1.83-2.667 4.598-2.449 7.794.04.58-.125 1.156-.464 1.628-.326.454-8.169 11.252-23.085 21.62-13.181 9.162-34.476 19.565-62.219 18.439 10.809 29.668 25.05 46.963 35.274 56.337 14.384 13.187 26.6 16.241 33.237 14.701 4.228-.981 18.477-6.094 24.304-30.695a2.5 2.5 0 0 1 2.431-1.925z" fill="#4939bb"/><path d="m545.55 302.696 148.596 108c38.298-.766 126.383-78.894 129.447-120.255-47.459-55.88-97.751-95.898-166.979-135.574z" fill="#fff"/><path d="M694.146 413.196a2.5 2.5 0 0 1-1.47-.478l-148.595-108a2.501 2.501 0 0 1-.529-3.524l111.064-147.83a2.499 2.499 0 0 1 3.242-.667c71.057 40.725 121.192 81.435 167.641 136.125.425.5.636 1.148.588 1.803-1.716 23.168-28.152 54.974-52.319 77.014-29.942 27.307-61.176 45.189-79.571 45.557h-.051zM549.075 302.167l145.844 106.001c17.372-.865 46.838-18.104 75.478-44.223 29.383-26.796 48.644-54.5 50.61-72.684-45.442-53.327-94.559-93.272-163.723-133.125z" fill="#4939bb"/><path d="M529.465 188.569c-66.638 16.085-237.604 204.735-354.03 341.076-8.426 9.192 61.277 95.745 76.596 84.255 123.756-86.554 278.2-206.267 324.923-272.139z" fill="#4939bb"/><path d="M927.35 383.987c3.685 11.384 9.349 18.795 15.307 30.233-6.39 14.199-11.9 29.644-15.362 45.652-11.45 52.934-6.522 91.597 2.917 110.287 9.087 17.993 24.158 19.427 32.906 4.794 13.9 34.302 39.35 19.714 36.578 4.941 15.125 11.044 26.421-1.181 26.52-17.834 5.604 5.232 11.832 3.819 16.903-1.997 8.352-9.579 11.844-40.667-6.07-67.461 5.444-22.825 8.929-55.096 3.822-79.096-5.106-24-32.681-65.872-32.681-65.872-22.104-.019-57.736 26.379-80.84 36.353z" fill="#fff"/><path d="M985.21 598.551c-9.79.001-17.645-8.634-22.571-18.565-4.107 5.001-9.209 7.603-14.692 7.406-7.659-.273-14.937-6.143-19.969-16.106-5.314-10.524-8.619-25.496-9.557-43.297-1.094-20.773 1.069-43.869 6.428-68.645 3.144-14.535 8.198-29.681 15.028-45.036-1.703-3.209-3.377-6.105-5.002-8.915-3.768-6.516-7.327-12.671-9.905-20.636a2.5 2.5 0 0 1 1.388-3.065c7.554-3.261 16.507-8.327 25.985-13.691 19.865-11.242 40.408-22.868 55.823-22.868a2.5 2.5 0 0 1 2.11 1.125c1.136 1.726 27.893 42.544 33.038 66.727 5.233 24.594 1.621 56.786-3.587 79.142 7.83 12.08 12.334 26.451 12.704 40.595.321 12.254-2.526 23.36-7.43 28.984-3.298 3.782-7.057 5.885-10.871 6.081-1.941.101-3.867-.304-5.707-1.183-1.079 8.615-5.087 15.479-10.972 18.448-4.561 2.3-9.85 2.043-15.219-.665-.929 6.097-5.559 11.532-12.02 13.426a17.732 17.732 0 0 1-5.002.738zm-22.094-26.098a2.5 2.5 0 0 1 2.318 1.561c4.527 11.171 13.045 22.029 23.37 19 5.745-1.685 9.449-7.246 8.434-12.66a2.5 2.5 0 0 1 3.931-2.481c5.187 3.787 10.039 4.725 14.03 2.712 5.122-2.583 8.464-9.861 8.515-18.542a2.5 2.5 0 0 1 4.206-1.812c1.931 1.803 3.938 2.666 5.954 2.561 2.428-.125 4.973-1.637 7.359-4.374 7.271-8.34 11.529-37.817-6.264-64.428a2.502 2.502 0 0 1-.354-1.97c5.213-21.858 8.951-53.827 3.809-77.996-4.483-21.069-27.139-56.972-31.573-63.86-14.059.689-34.204 12.09-52.044 22.186-8.744 4.948-17.045 9.646-24.351 12.989 2.328 6.444 5.328 11.632 8.75 17.549 1.83 3.165 3.722 6.437 5.669 10.175.354.679.377 1.483.062 2.181-6.939 15.417-12.052 30.61-15.199 45.155-11.532 53.31-6.164 91.07 2.705 108.631 4.185 8.287 9.901 13.157 15.684 13.363 4.813.173 9.378-2.927 12.845-8.725a2.502 2.502 0 0 1 2.144-1.215z" fill="#4939bb"/><path d="M963.116 577.454a2.503 2.503 0 0 1-2.372-1.712c-13.172-39.638-14.517-65.756-12.417-95.05a2.5 2.5 0 0 1 4.987.357c-2.109 29.423-.793 54.092 12.175 93.115a2.501 2.501 0 0 1-2.373 3.29zm36.58 4.94a2.497 2.497 0 0 1-2.018-1.022c-12.365-16.864-23.828-55.929-21.812-97.966a2.493 2.493 0 0 1 2.617-2.377 2.5 2.5 0 0 1 2.377 2.617c-1.448 30.183 5.368 73.656 20.85 94.77a2.5 2.5 0 0 1-2.014 3.978zm26.52-17.834c-.78 0-1.548-.364-2.036-1.047-11.66-16.317-20.315-56.911-20.264-82.305a2.5 2.5 0 0 1 2.5-2.495h.005a2.5 2.5 0 0 1 2.495 2.505c-.055 27.313 9.159 65.152 19.332 79.387a2.5 2.5 0 0 1-2.032 3.955z" fill="#4939bb"/><path d="M619.082 397.675c54.383-18.383 134.809-78.894 174.638-147.83l-222.894-100.34-40.596 42.128z" fill="#1f201b"/><path d="m527.933 301.164 72 111.064c26.695-4.992 52.713-14.226 77.462-26.607-54.484-60.712-123.42-158.755-143.335-200.117-23.881-49.598 19.116-51.728 36.766-36 29.872 66.638 106.468 157.787 153.277 208.137 42.848-30.057 79.868-68.66 107.148-108.563L715.593 127.292l-144.766 22.213-41.362 39.064z" fill="#4939bb"/><path d="M564.754 360.459a2.497 2.497 0 0 1-2.1-1.14l-36.819-56.794a2.5 2.5 0 1 1 4.196-2.72l36.819 56.794a2.5 2.5 0 0 1-2.096 3.86z" fill="#feecf8"/><path d="M570.827 149.505c49.787-75.83 246.659-106.884 365.362-16.468 63.506 48.372 78.894 151.277 89.617 205.66-20.509 42.392-48.579 74.513-96.511 79.66l-84.114-193.172c-32.377 3.462-84.869 6.966-130.354 8.576z" fill="#4939bb"/><ellipse cx="464.742" cy="133.037" fill="#4939bb" rx="17.617" ry="9.574" transform="matrix(.866 -.5 .5 .866 -4.2548 250.1943)"/><ellipse cx="422.997" cy="158.313" fill="#4939bb" rx="17.617" ry="9.574" transform="matrix(.866 -.5 .5 .866 -22.4859 232.7084)"/><path d="m434.62 148.98 14.871-10.141 2.817 4.13-14.872 10.142z" fill="#4939bb"/><path d="M512.965 103.747c-.667 92.463 15.734 169.843 93.096 206.609-40.596-51.319-30.707-126.523-14.553-186.894z" fill="#1f201b"/><path d="M606.062 312.856a2.493 2.493 0 0 1-1.962-.949c-26.354-33.315-34.85-81.009-25.252-141.757 1.387-8.782 4.119-16.849 6.76-24.651 1.678-4.958 3.414-10.084 4.736-15.236a2.499 2.499 0 1 1 4.843 1.243c-1.369 5.334-3.135 10.552-4.843 15.597-2.574 7.604-5.236 15.466-6.557 23.828-9.37 59.312-1.217 105.7 24.235 137.874a2.5 2.5 0 0 1-1.96 4.051z" fill="#4939bb"/><path d="M714.825 236.26a2.5 2.5 0 0 1-.087-4.999c30.87-1.092 66.055-3.099 96.534-5.505a2.5 2.5 0 0 1 .394 4.984c-30.548 2.411-65.812 4.422-96.751 5.517-.03.003-.06.003-.09.003z" fill="#feecf8"/><path d="M398.561 1249.237a2.501 2.501 0 0 1-.686-4.904l320.863-91.689a2.5 2.5 0 0 1 1.374 4.808l-320.863 91.689a2.521 2.521 0 0 1-.688.096z" fill="#4939bb"/></svg></g><g transform="translate(557.5 1038.75) rotate(0.0 431.25 605.625) scale(1.2484873399764922 1.2478314260871715)"><svg width="690.836" height="970.684" viewBox="0 0 690.836 970.684"><ellipse cx="482.427" cy="718.02" fill="#748f9f" rx="117.959" ry="25.276" transform="matrix(.9226 -.3858 .3858 .9226 -239.6541 241.6929)"/><path d="M686.472 796.368c-4.626-11.065-14.276-20.018-19.564-24.336.64-6.796 1.044-19.954-3.583-31.019-4.383-10.482-13.274-19.068-18.695-23.616.57-7.053.703-19.412-3.681-29.894-6.559-15.687-23.226-27.141-23.226-27.141l-.155.065c-14.5-10.883-76.614 1.981-146.226 31.09s-122.395 64.288-124.832 82.252l-.155.065s-3.552 19.909 3.008 35.595c4.383 10.482 13.274 19.068 18.694 23.616-.57 7.053-.702 19.413 3.681 29.895 4.628 11.069 14.279 20.02 19.565 24.335-.64 6.797-1.045 19.955 3.582 31.02 6.559 15.686 23.998 28.986 23.998 28.986l.154-.064c8.918 6.693 35.853 4.4 71.462-5.127l42.749 27.642.144-.06c5.734 3.171 26.487-1.265 49.677-10.962s40.923-21.354 42.693-27.663l.144-.06 10.348-49.845c31.792-18.656 52.341-36.218 53.84-47.268l.155-.064c.002-.001 2.782-21.756-3.777-37.442z" fill="#4939bb"/><g fill="#feecf8"><path d="M390.882 842.833c-15.487.001-21.24-4.242-23.064-8.604a2.5 2.5 0 1 1 4.613-1.929c3.163 7.564 25.783 6.238 45.899 2.475 27.945-5.229 63.344-16.475 99.675-31.667 79.145-33.094 128.357-70.368 123.024-83.122a2.5 2.5 0 1 1 4.613-1.929c2.668 6.382-.758 18.579-32.236 40.446-23.63 16.415-56.826 33.894-93.472 49.218s-72.403 26.677-100.685 31.968c-11.926 2.232-21.192 3.144-28.367 3.144zm23.147 55.355c-15.487.001-21.24-4.242-23.064-8.604a2.5 2.5 0 0 1 4.613-1.929c5.333 12.753 66.431 3.902 145.575-29.192 36.331-15.192 69.199-32.491 92.548-48.711 16.807-11.676 33.639-26.847 30.476-34.412a2.5 2.5 0 1 1 4.613-1.929c2.668 6.382-.758 18.58-32.236 40.446-23.629 16.415-56.825 33.895-93.472 49.218s-72.403 26.677-100.685 31.968c-11.927 2.234-21.193 3.145-28.368 3.145zm76.471 46.403a2.5 2.5 0 0 1-.645-4.915c22.913-6.131 48.656-15.072 74.445-25.856 25.793-10.786 50.238-22.831 70.691-34.833a2.499 2.499 0 1 1 2.53 4.312c-20.643 12.113-45.296 24.262-71.293 35.133-25.993 10.869-51.956 19.885-75.082 26.073a2.442 2.442 0 0 1-.646.086z"/></g><path d="M313.43 2.5c-39.996 0-80.633 7.759-119.84 24.154C35.136 92.911-39.604 275.076 26.654 433.53c36.336 86.897 107.535 148.61 190.562 175.705l-.004.002c72.717 23.695 130.27 79.753 155.953 151.689-.041.932.101 1.801.435 2.6 1.6 3.825 7.407 5.638 16.356 5.638 21.183 0 59.969-10.157 102.222-27.825 60.104-25.132 104.462-55.947 99.077-68.826-34.307-69.313-34.14-150.698.449-219.871l-.004.002c39.026-78.132 45.103-172.157 8.767-259.054C550.602 74.344 435.074 2.5 313.43 2.5z" fill="#fff"/><path d="M389.956 771.664c-10.393 0-16.672-2.414-18.663-7.174a8.366 8.366 0 0 1-.634-3.148c-12.494-34.789-33.087-66.786-59.576-92.56-26.615-25.896-59.342-45.665-94.646-57.169a2.393 2.393 0 0 1-.119-.042c-86.805-28.368-156.774-92.905-191.971-177.078-32.302-77.251-32.588-162.458-.805-239.925C55.326 117.103 115.375 56.65 192.626 24.347 231.262 8.191 271.906 0 313.43 0c61.077 0 120.485 17.716 171.803 51.234 52.575 34.339 93.22 83.232 117.54 141.391 35.199 84.178 31.998 179.308-8.782 261.026a2.16 2.16 0 0 1-.051.109c-16.799 33.596-25.719 71.208-25.796 108.77s8.69 75.21 25.352 108.874c.023.047.045.096.066.145 6.959 16.645-46.544 49.569-100.419 72.097-41.331 17.282-80.87 28.018-103.187 28.018zM218.107 606.899c35.98 11.745 69.333 31.902 96.462 58.3 27.14 26.407 48.216 59.218 60.95 94.886.109.304.157.627.143.95-.025.574.055 1.073.244 1.526 1.09 2.607 6.211 4.102 14.05 4.102 21.698 0 60.498-10.587 101.258-27.631 28.911-12.089 55.061-25.853 73.635-38.754 20.062-13.937 25.615-22.934 24.125-26.738-16.977-34.332-25.909-72.719-25.83-111.02.078-38.291 9.161-76.629 26.269-110.886.016-.036.033-.072.051-.107 40.179-80.439 43.349-174.103 8.696-256.973C574.228 137.322 534.233 89.21 482.499 55.42 431.996 22.435 373.533 5 313.43 5c-40.858 0-80.854 8.062-118.875 23.96-76.019 31.787-135.11 91.275-166.386 167.506-31.277 76.231-30.996 160.079.792 236.099 34.652 82.871 103.551 146.398 189.03 174.293l.116.041z" fill="#4939bb"/><path d="M524.99 701.639a2.5 2.5 0 0 1-2.273-1.457c-40.706-88.561-64.171-181.571-67.86-268.976a435.194 435.194 0 0 1-.404-18.588c-10.99.819-21.716-2.446-31.17-7.958-3.04 11.862-9.313 21.333-18.222 27.265-16.253 10.822-40.383 5.3-64.553-14.77-10.715-8.898-16.947-23.485-15.154-35.473 1.057-7.064 4.804-12.279 10.551-14.682a2.501 2.501 0 0 1 1.929 4.613c-5.218 2.182-6.978 7.082-7.535 10.808-1.548 10.348 3.964 23.049 13.403 30.887 22.375 18.58 44.276 23.983 58.587 14.454 8.922-5.941 14.142-15.451 16.537-25.929-11.331-7.774-20.383-18.626-25.133-28.909-6.195-13.41-4.414-24.125 4.764-28.661 6.562-3.243 13.642.298 18.937 9.476 5.897 10.222 8.862 25.399 7.738 39.609a70.125 70.125 0 0 1-.746 6.084c.478.295.957.583 1.438.863 7.253 4.227 17.379 8.258 28.664 7.305.823-58.894 15.627-78.269 25.102-84.634 7.232-4.858 15.708-5.292 24.51-1.255 6.633 3.042 10.219 10.433 10.097 20.811-.267 22.733-17.654 54.632-45.28 66.526a45.257 45.257 0 0 1-9.462 2.909c-.015 5.933.11 12.267.396 19.036 3.662 86.762 26.971 179.123 67.408 267.099a2.499 2.499 0 0 1-1.228 3.315 2.425 2.425 0 0 1-1.041.232zm-32.545-377.671c-3.574 0-6.938 1.051-10.065 3.152-6.984 4.691-21.908 21.533-22.875 79.73a40.418 40.418 0 0 0 7.437-2.393c24.969-10.749 42.009-40.732 42.258-61.992.057-4.797-.802-13.282-7.181-16.208-3.332-1.526-6.529-2.289-9.574-2.289zm-89.079 24.122c-.87 0-1.769.201-2.692.657-9.55 4.72-4.283 18.095-2.441 22.082 4.316 9.342 12.287 18.676 21.585 25.515 1.969-14.605-1.018-30.162-6.753-40.105-1.898-3.287-5.427-8.149-9.699-8.149z" fill="#1f201b"/><path d="M439.532 737.373a2.5 2.5 0 0 1-2.339-1.617c-34.224-90.575-83.599-172.037-142.787-235.579a425.521 425.521 0 0 0-13.272-13.652 45.283 45.283 0 0 1-8.716 4.692c-8.286 3.363-17.199 4.84-26.058 4.841-20.939.001-41.596-8.246-53.1-19.333-7.473-7.203-10.216-14.946-7.723-21.804 3.309-9.102 9.571-14.83 18.108-16.566 18.568-3.779 45.816 10.883 77.866 41.582 8.615-7.365 12.855-17.407 14.942-25.542.05-.195.099-.389.147-.585-13.239-9.553-23.095-24.464-26.708-35.805-3.667-11.509-1.462-19.9 5.896-22.446 9.673-3.346 18.554 2.909 23.749 16.739 4.08 10.86 5.414 25.355 2.742 39.18 9.227 5.772 19.717 8.519 30.063 5.502 20.138-5.874 28.264-19.456 31.051-51.904 1.05-12.224-4.12-25.068-12.573-31.234-3.043-2.22-7.768-4.41-12.986-2.228a2.5 2.5 0 1 1-1.929-4.613c5.749-2.403 12.091-1.408 17.862 2.801 9.792 7.144 15.799 21.824 14.607 35.701-2.512 29.24-9.182 48.854-34.633 56.276-11.74 3.425-22.96.731-32.687-5.042-2.79 10.194-7.926 19.698-15.945 26.695a428.786 428.786 0 0 1 12.954 13.336c59.627 64.014 109.354 146.043 143.806 237.22a2.5 2.5 0 0 1-2.337 3.385zM209.331 442.817c-1.896 0-3.452.187-4.689.438-6.838 1.391-11.685 5.891-14.406 13.375-2.398 6.596 3.039 13.167 6.493 16.496 15.308 14.754 48.619 23.682 73.807 13.459a40.503 40.503 0 0 0 6.926-3.613c-35.788-34.158-57.392-40.155-68.131-40.155zm71.396-43.113c-1.045 0-2.146.18-3.303.581-6.626 2.292-3.793 12.981-2.767 16.203 3.519 11.043 12.117 23.426 23.056 31.814 1.865-11.693.864-24.343-2.856-34.246-1.367-3.638-6.085-14.352-14.13-14.352z" fill="#1f201b"/></svg></g><g transform="translate(85.0 1213.75) rotate(0.0 535.625 785.0) scale(1.2500437588246962 1.2502707592727087)"><svg width="856.97" height="1255.728" viewBox="0 0 856.97 1255.728"><path d="M682.927 1175.792c47.452-32.735-17.391-39.585-50.058-10.014 11.443 18.681 27.148 24.89 50.058 10.014z" fill="#1f201b"/><path d="M565.771 1121.389c-105.712 17.719-180.176 45.594-185.181 96.04 100.102 13.225 205.207 12.561 314.595 0-.449-13.861-4.702-27.741-12.259-41.637-44.06-2.249-82.368-22.745-117.155-54.403z" fill="#feecf8"/><path d="M532.409 1229.548c-52.671 0-103.498-3.212-152.146-9.64a2.5 2.5 0 0 1-2.16-2.725c4.603-46.395 64.104-77.617 187.255-98.259a2.498 2.498 0 0 1 2.096.616c37.488 34.115 75.302 51.698 115.601 53.755a2.501 2.501 0 0 1 2.069 1.302c7.886 14.502 12.112 28.885 12.561 42.751a2.498 2.498 0 0 1-2.213 2.564c-55.93 6.424-110.418 9.636-163.063 9.636zm-149.036-14.275c95.523 12.388 199.521 12.367 309.203-.062-.77-11.986-4.527-24.415-11.188-37-40.647-2.432-78.748-20.159-116.397-54.155-56.677 9.562-98.718 21.124-128.498 35.337-32.475 15.498-49.882 33.797-53.12 55.88z" fill="#4939bb"/><path d="M685.642 1255.728H380.978c-10.576 0-19.149-8.573-19.149-19.149s8.573-19.149 19.149-19.149h304.664c10.576 0 19.149 8.573 19.149 19.149 0 10.575-8.573 19.149-19.149 19.149z" fill="#4939bb"/><path d="M283.802 1185.759c57.303 6.294 12.75-41.314-31.303-40.327-3.569 21.616 4.245 36.587 31.303 40.327z" fill="#1f201b"/><path d="M230.802 1067.962c-91.536-55.769-166.086-83.412-202.879-48.537 67.047 75.499 146.964 143.768 237.906 205.843 8.73-10.776 14.595-24.055 17.973-39.508-31.848-30.531-47.406-71.096-53-117.798z" fill="#feecf8"/><path d="M265.827 1227.768c-.487 0-.978-.142-1.408-.435-93.017-63.491-173.214-132.883-238.365-206.248a2.5 2.5 0 0 1 .149-3.474c33.837-32.074 99.263-16.752 205.9 48.217a2.502 2.502 0 0 1 1.182 1.838c6.028 50.327 23.118 88.366 52.248 116.29a2.5 2.5 0 0 1 .712 2.339c-3.525 16.127-9.741 29.769-18.473 40.548a2.504 2.504 0 0 1-1.945.925zM31.439 1019.615c64.13 71.869 142.79 139.9 233.868 202.268 7.26-9.567 12.551-21.425 15.749-35.301-29.147-28.435-46.361-66.77-52.588-117.113-49.118-29.853-88.475-48.617-120.295-57.355-34.7-9.529-59.836-7.08-76.734 7.501z" fill="#4939bb"/><path d="M237.015 1250.98 6.62 1051.636c-7.998-6.92-8.871-19.013-1.952-27.01 6.92-7.998 19.013-8.871 27.01-1.952l230.395 199.344c7.998 6.92 8.871 19.013 1.952 27.01-6.92 7.998-19.012 8.872-27.01 1.952z" fill="#4939bb"/><path d="M407.54 465.259 153.242 954.706c-30.863 4.144-52.543 17.366-51.702 52.851l187.277 219.447c43.607-38.958 41.984-77.127 17.234-114.894 93.909-2.083 171.26-337.479 251.617-612.383 14.161-236.241-32.47-259.675-150.128-34.468z" fill="#1f201b"/><path d="M676.391 482.11c-31.442 95.758-66.584 195.241-104.936 297.957 93.064 132.128 139.021 297.575 101.873 326.298 47.489 29.872 46.557 105.472 30.4 123.921l-267.081-74.9c-22.213-21.83 1.915-59.745 26.042-55.149-26.808-77.745-71.849-248.917-74.298-338.553-1.915-70.085 54.383-210.255 93.447-266.553-31.021-228.638 139.021-214.85 194.553-13.021z" fill="#1f201b"/><path d="M420.623 955.581a2.502 2.502 0 0 1-2.427-1.908c-11.382-46.7-30.715-133.732-32.304-191.919-.511-18.703 2.903-61.681 31.509-139.379 18.274-49.635 41.438-97.716 60.86-126.445-7.113-3.92-15.834-6.387-27.814-7.908a2.5 2.5 0 1 1 .63-4.96c14.029 1.781 23.924 4.85 32.085 9.951a2.501 2.501 0 0 1 .729 3.545c-19.5 28.104-43.18 76.976-61.798 127.545-20.987 57.004-32.069 105.841-31.204 137.515 1.169 42.782 12.591 110.568 32.164 190.872a2.5 2.5 0 0 1-2.43 3.091z" fill="#4939bb"/><path d="M240.817 21.004c-99.574-13.277-134.681 95.362-64.596 136.723-85.787 63.83 1.787 168.638 57.957 98.17l189.958-154.213c-21.958-17.362-56.088-16.894-77.106-7.149-28.085-65.361-73.532-85.786-106.213-73.531z" fill="#1f201b"/><path d="M235.199 250.791c0-41.362 116.711-144.291 188.937-149.106 91.915-6.128 338.042 243.319 250.723 429.447-32.936-45.192-103.121-117.797-153.191-153.192-36.567 52.33-78.097 92.982-127.915 114.128-11.175-5.805-16.784-14.809-9.191-31.404-66.672 9.904-92.681-62.809-98.042-150.128-18.744-14.085-51.321-31.79-51.321-59.745z" fill="#4939bb"/><path d="M299.03 157.345c61.787 101.617 121.532 27.574 69.447-39.319-35.596-9.172-61.474-.949-69.447 39.319z" fill="#1f201b"/><path d="M293.5 41.189c49.444 52.837 62.721 121.262 5.529 116.156 0 0 9.702 15.128 27.816 34.952 1.975 4.541 4.176 11.094 7.234 20.598-2.879 25.258-13.73 37.641-37.344 23.424-8.719-13.462-13.342-21.804-16.845-26.628-12.123-22.242-29.396-49.285-43.925-65.751-17.367 10.425-29.182-.208-28.09-9.49.766-6.511 8.809-10.34 14.936-8.809l-13.9-27.241C179.03 33.77 299.03 1.345 293.5 41.189z" fill="#feecf8"/><path d="M314.147 244.803c-5.428 0-11.685-2.118-18.702-6.343a2.5 2.5 0 0 1-.809-.783c-4.192-6.471-7.449-11.778-10.067-16.043-2.864-4.667-4.934-8.039-6.703-10.475a2.49 2.49 0 0 1-.172-.272c-10.143-18.61-27.124-46.129-42.276-63.767-8.525 4.527-16.853 4.844-23.093.812-4.83-3.12-7.551-8.527-6.934-13.774.394-3.345 2.311-6.361 5.399-8.493 2.299-1.587 5.053-2.549 7.799-2.795l-11.906-23.333c-9.376-20.276-5.522-40.053 10.81-55.775 19.188-18.47 53.093-27.902 69.767-19.407 6.33 3.225 9.441 8.866 8.85 15.97 34.189 36.923 50.761 80.359 39.427 103.595-3.772 7.736-12.268 16.472-31.594 16.189 4.076 5.777 12.501 17.101 24.746 30.503.186.203.337.436.447.689 1.99 4.575 4.191 11.102 7.321 20.829.109.338.144.696.104 1.049-1.819 15.958-6.711 26.005-14.541 29.862-2.386 1.175-5.015 1.762-7.873 1.762zm-15.63-10.333c8.929 5.272 16.091 6.647 21.296 4.084 6.126-3.017 10.068-11.564 11.72-25.41-2.907-9.025-4.984-15.181-6.817-19.472-17.868-19.6-27.392-34.356-27.791-34.978a2.5 2.5 0 0 1 2.326-3.839c16.145 1.442 26.841-2.975 31.793-13.127 10.375-21.271-6.55-63.759-39.37-98.831a2.498 2.498 0 0 1-.651-2.052c.781-5.633-1.192-9.569-6.033-12.036-13.258-6.754-44.773.018-64.029 18.554-10.384 9.996-20.51 26.782-9.782 49.987l13.858 27.154a2.502 2.502 0 0 1-2.834 3.562c-2.719-.68-6.083-.007-8.572 1.712-1.888 1.304-3.051 3.067-3.274 4.963-.396 3.368 1.441 6.896 4.682 8.99 5.022 3.246 12.182 2.541 19.639-1.936a2.5 2.5 0 0 1 3.161.489c15.7 17.793 33.093 45.766 44.169 66.068 1.858 2.577 3.948 5.982 6.823 10.665 2.537 4.135 5.679 9.254 9.686 15.453z" fill="#4939bb"/><path d="M238.391 26.238c12.128-40.468 81.575-33.83 83.745 17.872-9.235 1.917-21.086 6.747-33.443 13.314-1.791-5.016-10.599-16.505-17.621-19.441 2.809 7.149 5.106 23.234 3.184 27.768-19.197 11.941-37.655 26.937-47.61 40.658 5.913 12.164.378 15.021-3.835 19.234l-37.016-29.446c3.373-28.923 15.703-66.767 52.596-69.959z" fill="#1f201b"/><path d="M324.901 106.716c-5.053-2.707-9.928-.167-12.262 4.398-8.31.222-13.29 6.458-14.766 13.746 15.606 2.27 25.462-1.913 27.028-18.144zm-86.127 85.299c-15.738 0-28.542-12.804-28.542-28.543 0-6.236 1.975-12.161 5.712-17.133a2.5 2.5 0 0 1 3.997 3.003c-3.081 4.099-4.709 8.985-4.709 14.129 0 12.981 10.561 23.543 23.542 23.543s23.542-10.561 23.542-23.543-10.561-23.543-23.542-23.543a23.487 23.487 0 0 0-12.323 3.479 2.5 2.5 0 0 1-2.621-4.257 28.487 28.487 0 0 1 14.944-4.221c15.738 0 28.542 12.804 28.542 28.543s-12.803 28.543-28.542 28.543z" fill="#4939bb"/><path d="M296.859 236.238s23.936-4.021 37.149-23.457c6.702 25.755 44.681 129.926 44.681 129.926-32.247-38.154-60.574-72.575-81.83-106.469z" fill="#fff"/><path d="M378.691 345.206a2.5 2.5 0 0 1-1.911-.886c-30.821-36.466-60.288-72.07-82.039-106.754a2.5 2.5 0 0 1 1.701-3.793c.229-.039 23.068-4.113 35.499-22.398a2.5 2.5 0 0 1 4.487.776c6.596 25.347 44.231 128.658 44.61 129.699a2.5 2.5 0 0 1-2.347 3.356zm-77.825-107.313c19.211 30.07 44.192 60.932 70.689 92.47-9.734-26.944-31.373-87.391-38.599-112.056-10.653 12.684-25.361 17.809-32.09 19.586z" fill="#4939bb"/><path d="M415.966 119.047c212.17-45.957 344.681-8.426 328.596 283.404l-42.316 115.146c-28.918-35.487-96.322-229.529-94.025-279.061-45.191 5.362-108.901 4.153-157.787-2.298-17.107-8.425-55.404-75.83-34.468-117.191z" fill="#ff9f80"/><path d="M415.966 119.047c212.17-45.957 344.681-8.426 328.596 283.404l-42.316 115.146c-28.918-35.487-96.322-229.529-94.025-279.061-45.191 5.362-108.901 4.153-157.787-2.298-17.107-8.425-55.404-75.83-34.468-117.191z" fill="#feecf8"/><path d="M702.245 520.097a2.502 2.502 0 0 1-1.938-.921c-13.66-16.762-36.875-69.766-59.146-135.035-17.343-50.828-35.416-114.051-35.498-142.795-44.241 4.898-106.274 3.874-155.557-2.629a2.49 2.49 0 0 1-.777-.236c-9.824-4.839-26.197-27.339-35.519-55.253-10.885-32.598-6.049-53.508-.076-65.31a2.498 2.498 0 0 1 1.701-1.314c61.331-13.285 111.105-18.441 152.172-15.764 46.782 3.049 83.115 16.127 111.077 39.98 53.214 45.395 75.579 131.021 68.373 261.769a2.53 2.53 0 0 1-.149.725L704.592 518.46a2.5 2.5 0 0 1-2.347 1.637zm-94.024-284.061a2.5 2.5 0 0 1 2.497 2.616c-1.027 22.147 12.451 77.276 35.175 143.874 20.336 59.601 42.133 110.367 55.598 129.874l40.594-110.461c7.051-128.871-14.75-213.046-66.646-257.317-27.112-23.128-62.49-35.818-108.157-38.795-40.333-2.629-89.278 2.41-149.606 15.406-5.289 11.134-9.137 30.421.876 60.409 6.752 20.221 21.726 46.4 32.633 52.172 49.914 6.545 112.838 7.447 156.74 2.238.1-.01.198-.016.296-.016z" fill="#4939bb"/><path d="M656.486 391.614c.955 16.614 11.982 78.467 45.76 125.983 31.38 44.142 63.259 66.564 83.427 72.192 19.416 5.418 30.634-4.747 25.724-21.073 34.707 12.857 41.088-15.775 28.307-23.686 18.353-3.727 16.939-20.311 4.705-31.61 7.642-.612 10.797-6.165 9.919-13.832-1.445-12.627-22.053-36.163-53.92-40.993-13.189-19.407-32.314-38.057-55.846-56.144l-12.472-19.815c-21.38-5.606-50.729 5.172-75.604 8.978z" fill="#feecf8"/><g fill="#4939bb"><path d="M795.473 593.739c-3.248 0-6.771-.509-10.473-1.542-11.355-3.169-24.642-10.821-38.423-22.129-16.081-13.195-31.682-30.362-46.37-51.023-9.189-12.927-17.417-27.908-24.455-44.528-8.994-20.02-15.146-35.291-19.34-48.009a2.5 2.5 0 1 1 4.748-1.566c4.139 12.55 10.231 27.667 19.174 47.575 6.918 16.336 14.968 30.998 23.947 43.63 31.603 44.455 63.111 65.945 82.061 71.233 8.942 2.495 16.393 1.557 20.443-2.575 3.374-3.442 4.161-8.901 2.215-15.37a2.499 2.499 0 0 1 3.263-3.064c11.302 4.187 25.063 5.216 29.788-4.453 2.628-5.379 1.018-11.864-3.666-14.763a2.5 2.5 0 0 1 .818-4.576c6.294-1.278 10.257-4.229 11.461-8.535 1.545-5.524-1.578-12.899-7.956-18.789a2.501 2.501 0 0 1 1.496-4.328c2.634-.211 4.62-1.11 5.905-2.671 1.545-1.878 2.144-4.777 1.73-8.384-1.258-10.993-20.161-34.009-51.811-38.805a2.498 2.498 0 0 1-1.693-1.067c-12.506-18.402-30.595-36.578-55.301-55.567a2.5 2.5 0 0 1-.974-2.107l.471-9.418a2.5 2.5 0 0 1 4.994.25l-.406 8.112c24.21 18.725 42.136 36.744 54.739 55.025 14.202 2.36 27.853 8.721 38.549 17.983 9.267 8.024 15.551 17.613 16.399 25.026.57 4.986-.411 9.18-2.837 12.129-1.235 1.501-2.831 2.651-4.721 3.418 5.636 6.605 8.004 14.193 6.229 20.54-1.376 4.92-5.131 8.653-10.751 10.793 3.877 4.797 4.77 11.88 1.814 17.929-5.543 11.345-19.339 11.908-31.753 8.348.925 6.405-.594 11.926-4.435 15.844-3.511 3.589-8.696 5.434-14.879 5.434z"/><path d="M811.395 571.217c-.34 0-.685-.07-1.016-.217-38.156-16.991-58.354-33.605-78.577-54.903a2.499 2.499 0 0 1 .092-3.534c1-.951 2.583-.91 3.534.092 20.312 21.393 39.42 37.05 76.985 53.778a2.5 2.5 0 0 1-1.018 4.784zm28.311-23.687a2.47 2.47 0 0 1-.27-.015c-20.792-2.235-57.374-20.103-87.064-49.93a2.501 2.501 0 0 1 3.544-3.528c21.318 21.416 58.023 45.688 84.055 48.486a2.5 2.5 0 0 1-.265 4.987zm4.704-31.611c-.099 0-.2-.006-.301-.018-19.912-2.387-55.729-23.36-74.452-40.516a2.5 2.5 0 1 1 3.378-3.686c20.137 18.453 54.297 37.155 71.669 39.238a2.5 2.5 0 0 1-.294 4.982zM474.04 254.247c-.16 0-.322-.015-.484-.047-.632-.123-6.69-1.616-24.684-16.01a2.5 2.5 0 0 1 3.123-3.905c16.841 13.472 22.359 14.965 22.586 15.022 1.355.264 2.205 1.569 1.941 2.924-.232 1.193-1.303 2.016-2.482 2.016z"/></g></svg></g><g transform="translate(1766.25 75.0) rotate(0.0 231.875 275.0) scale(1.236920647706329 1.2365969750589632)"><svg width="374.923" height="444.769" viewBox="0 0 374.923 444.769"><path d="M372.423 162.636c0-21.889-82.81-39.633-184.961-39.633C85.31 123.003 2.5 140.747 2.5 162.636v240c0 21.889 82.811 39.633 184.962 39.633s184.961-17.744 184.961-39.633z" fill="#fff"/><g fill="#4939bb"><path d="M372.423 405.136a2.5 2.5 0 0 1-2.5-2.5v-240c0-9.014-19.513-18.577-52.198-25.58-34.768-7.45-81.029-11.553-130.264-11.553s-95.497 4.103-130.264 11.553C24.513 144.059 5 153.622 5 162.636v240a2.5 2.5 0 1 1-5 0v-240c0-15.239 30.535-24.981 56.15-30.469 35.102-7.521 81.735-11.664 131.312-11.664 49.576 0 96.21 4.142 131.311 11.664 25.616 5.489 56.15 15.23 56.15 30.469v240a2.5 2.5 0 0 1-2.5 2.5z"/><path d="M187.461 444.769c-49.576 0-96.21-4.142-131.312-11.664C30.535 427.617 0 417.875 0 402.636s30.535-24.98 56.15-30.469c35.102-7.521 81.736-11.664 131.312-11.664s96.21 4.142 131.312 11.664c25.616 5.489 56.15 15.23 56.15 30.469s-30.535 24.981-56.15 30.469c-35.103 7.522-81.736 11.664-131.313 11.664zm0-79.266c-49.234 0-95.496 4.103-130.264 11.553C24.513 384.059 5 393.622 5 402.636s19.513 18.577 52.198 25.581c34.768 7.45 81.029 11.553 130.264 11.553s95.497-4.103 130.264-11.553c32.685-7.004 52.198-16.566 52.198-25.581 0-9.014-19.513-18.577-52.198-25.58-34.768-7.45-81.03-11.553-130.265-11.553z"/><ellipse cx="187.462" cy="403.636" rx="148.068" ry="31.728"/><path d="M372.423 405.136a2.5 2.5 0 0 1-2.5-2.5c0-9.014-19.513-18.577-52.198-25.581-34.768-7.45-81.029-11.553-130.264-11.553s-95.497 4.103-130.264 11.553C24.513 384.059 5 393.622 5 402.636a2.5 2.5 0 1 1-5 0c0-15.239 30.535-24.981 56.15-30.469 35.102-7.521 81.735-11.664 131.312-11.664 49.576 0 96.209 4.142 131.311 11.664 25.616 5.489 56.15 15.23 56.15 30.469a2.5 2.5 0 0 1-2.5 2.5z"/></g><path d="M174.075 123.106V15.887c0-7.393 5.994-13.387 13.387-13.387 7.393 0 13.387 5.994 13.387 13.387v107.219z" fill="#fff"/><path d="M200.849 125.606h-26.774a2.5 2.5 0 0 1-2.5-2.5V15.887c0-8.76 7.127-15.887 15.887-15.887s15.887 7.127 15.887 15.887v107.219a2.5 2.5 0 0 1-2.5 2.5zm-24.274-5h21.774V15.887C198.349 9.884 193.465 5 187.461 5c-6.003 0-10.887 4.884-10.887 10.887v104.719z" fill="#4939bb"/></svg></g><g transform="translate(1206.25 1978.75) rotate(0.0 215.0 149.375) scale(1.2655806219004313 1.2703252032520327)"><svg width="339.765" height="235.176" viewBox="0 0 339.765 235.176"><g><g><path style="fill:#1f201b" d="M287.551 2.429 161.025 17.52c-30.07 15.307-55.548 35.032-76.041 59.554-70.033 4.151-99.082 57.115-78.505 116.984 104.078-17.497 208.706-48.566 313.742-89.654 2.216-34.839-6.93-66.319-32.67-101.975z"/><path style="fill:#1f201b" d="m339.604 138.179-9.243-32.345a4.163 4.163 0 0 0-5.147-2.859L4.352 194.664a4.162 4.162 0 0 0-2.859 5.146l9.243 32.345a4.163 4.163 0 0 0 5.147 2.859l185.679-53.059a4.157 4.157 0 0 0 2.031-1.31l28.799-33.964 5.923 20.457a4.163 4.163 0 0 0 5.142 2.845l93.288-26.658a4.161 4.161 0 0 0 2.859-5.146z"/><path style="fill:#4939bb" d="M4.351 197.165a2.5 2.5 0 0 1-.685-4.905l320.862-91.689a2.5 2.5 0 0 1 1.373 4.808L5.039 197.068c-.23.066-.46.097-.688.097z"/><path style="fill:#feecf8" d="M179.092 22.112a4.992 4.992 0 0 0-2.235-4.046L150.888.834a5 5 0 1 0-5.529 8.333l25.969 17.231a5 5 0 0 0 7.764-4.286zM145.03 65.54a4.973 4.973 0 0 0-1.01-1.716l-24.457-27.242a5 5 0 0 0-7.442 6.68l24.457 27.242a5 5 0 0 0 8.452-4.964zM99.766 95.901a4.974 4.974 0 0 0-.356-.86L83.923 65.617a5.002 5.002 0 0 0-6.754-2.096 5 5 0 0 0-2.096 6.753L90.56 99.698a5.002 5.002 0 0 0 9.206-3.797z"/></g></g></svg></g><g transform="translate(2026.25 1130.0) rotate(0.0 78.125 119.375) scale(1.4397604238654687 1.4333485423370635)"><svg width="108.525" height="166.568" viewBox="0 0 108.525 166.568"><g><g><path style="fill:#feecf8" d="M67.767 164.068s34.989-60.011 38.043-99.431c2.68-34.603-20.085-59.274-39.588-61.795-26.668-3.447-31.881 20-12.732 32.255-30.255-11.489-36.383 17.617-19.404 31.54-23.489-3.582-32.068 21.311-8.681 39.537-31.66-7.607-30.277 24.2 2.77 41.881l39.592 16.013z"/><path style="fill:#4939bb" d="M67.765 166.568a2.5 2.5 0 0 1-2.158-3.76c.088-.149 8.809-15.16 17.783-34.759 11.811-25.793 18.701-47.787 19.927-63.606 2.682-34.608-20.421-56.926-37.415-59.122-10.461-1.352-18.398 1.771-20.718 8.149-1.96 5.387.265 13.513 9.653 19.522a2.5 2.5 0 0 1-2.235 4.443c-11.207-4.256-19.788-2.985-23.535 3.489-3.545 6.121-2.043 16.689 6.604 23.78a2.498 2.498 0 0 1 .698 2.95 2.502 2.502 0 0 1-2.66 1.454c-8.859-1.351-15.771 1.613-18.49 7.927-2.683 6.228-1.222 17.079 11.723 27.167a2.5 2.5 0 0 1-2.121 4.403c-10.169-2.443-17.174-.771-19.214 4.591-3.026 7.955 5.148 22.66 23.63 32.591l1.347.545a2.5 2.5 0 0 1-1.875 4.635l-1.472-.595a2.525 2.525 0 0 1-.242-.113C4.955 138.467-2.882 121.447.934 111.419c2.3-6.044 8.362-9.14 16.837-8.853-9.424-10.27-10.007-20.861-7.145-27.508 2.88-6.687 9.248-10.695 17.307-11.207-5.969-7.781-7.486-18.018-3.193-25.432 3.71-6.409 10.717-9.239 19.581-8.215-4.481-5.721-6.021-12.438-3.836-18.443C44.268 1.362 56.433-.943 66.542.363c10.69 1.382 21.838 8.815 29.82 19.884 8.964 12.43 13.203 28.264 11.938 44.584-3.062 39.537-36.934 98.026-38.374 100.497a2.497 2.497 0 0 1-2.161 1.24z"/><path style="fill:#4939bb" d="M91.258 108.995a2.5 2.5 0 0 1-2.415-3.152c2.579-9.551 4.407-23.858-1.53-37.781C81.598 54.66 69.906 44.35 52.562 37.419a2.5 2.5 0 0 1 1.855-4.643c48.339 19.317 43.554 58.445 39.252 74.37a2.5 2.5 0 0 1-2.411 1.849zm-23.489 57.573a2.5 2.5 0 0 1-2.441-3.053c2.527-11.155.513-45.186-40.501-54.908a2.5 2.5 0 1 1 1.155-4.865c23.307 5.525 34.283 18.604 39.387 28.602 6.211 12.167 6.487 24.992 4.837 32.277a2.503 2.503 0 0 1-2.437 1.947zm9.316-25.651a2.5 2.5 0 0 1-2.315-3.44c5.114-12.611 4.644-26.74-1.292-38.763-6.97-14.118-20.82-24.376-40.055-29.666a2.5 2.5 0 0 1 1.326-4.821C60.838 71.402 72.648 85.738 77.961 96.5c6.566 13.303 7.093 28.923 1.441 42.856a2.498 2.498 0 0 1-2.317 1.561z"/></g></g></svg></g></svg>