<svg xmlns="http://www.w3.org/2000/svg" xmlns:xlink="http://www.w3.org/1999/xlink" viewBox="0,0,256,256" width="96px" height="96px"><g fill="#666666" fill-rule="nonzero" stroke="none" stroke-width="1" stroke-linecap="butt" stroke-linejoin="miter" stroke-miterlimit="10" stroke-dasharray="" stroke-dashoffset="0" font-family="none" font-weight="none" font-size="none" text-anchor="none" style="mix-blend-mode: normal"><g transform="scale(4,4)"><path d="M22,9c-3.31,0 -6,2.69 -6,6v34c0,3.31 2.69,6 6,6h20c3.31,0 6,-2.69 6,-6v-6.98047c-0.368,0.368 -1.635,1.96247 -4,1.98047v5c0,1.1 -0.9,2 -2,2h-20c-1.1,0 -2,-0.9 -2,-2v-34c0,-1.1 0.9,-2 2,-2h20c1.1,0 2,0.9 2,2v5c2.371,0.018 3.643,1.62347 4,1.98047v-6.98047c0,-3.31 -2.69,-6 -6,-6zM43.94141,22.99805c-0.512,0.00188 -1.02216,0.1998 -1.41016,0.5918c-0.778,0.784 -0.77423,2.05208 0.00977,2.83008l3.60547,3.58008h-15.19727c-1.104,0 -2,0.896 -2,2c0,1.104 0.896,2 2,2h15.19727l-3.60547,3.58008c-0.784,0.779 -0.78777,2.04413 -0.00977,2.82813c0.391,0.394 0.90297,0.5918 1.41797,0.5918c0.51,0 1.02116,-0.19208 1.41016,-0.58008l7.04883,-7c0.378,-0.375 0.5918,-0.88692 0.5918,-1.41992c0,-0.533 -0.2138,-1.04392 -0.5918,-1.41992l-7.04883,-7c-0.392,-0.3895 -0.90597,-0.58391 -1.41797,-0.58203z"></path></g></g></svg>