<svg xmlns="http://www.w3.org/2000/svg" xmlns:xlink="http://www.w3.org/1999/xlink" viewBox="0,0,256,256" width="96px" height="96px"><g fill="none" fill-rule="none" stroke="none" stroke-width="1" stroke-linecap="butt" stroke-linejoin="miter" stroke-miterlimit="10" stroke-dasharray="" stroke-dashoffset="0" font-family="none" font-weight="none" font-size="none" text-anchor="none" style="mix-blend-mode: normal"><g transform="scale(5.33333,5.33333)"><path transform="translate(-1974.854,-2080.878)" d="M2022.854,2104.8779c0,-13.25483 -10.74517,-24 -24,-24c-13.25483,0 -24,10.74517 -24,24c0,13.25483 10.74517,24 24,24c13.25483,0 24,-10.74517 24,-24z" fill="#6c47ff" fill-rule="nonzero"></path><g fill="#ffffff"><path transform="translate(8,-1016.737)" d="M18.25,1041.1122c0,1.24264 -1.00736,2.25 -2.25,2.25c-1.24264,0 -2.25,-1.00736 -2.25,-2.25c0,-1.24264 1.00736,-2.25 2.25,-2.25c1.24264,0 2.25,1.00736 2.25,2.25z" fill-rule="nonzero"></path><path transform="translate(-2069.627,207.798)" d="M2080.3652,-183.75c-0.41341,0.00651 -0.7436,0.34634 -0.7382,0.75977v5.3789c0.00004,0.4142 0.3358,0.74996 0.75,0.75h7.5918v2.1875c0.00004,0.4142 0.3358,0.74996 0.75,0.75h9.8164c0.4142,-0.00004 0.74996,-0.3358 0.75,-0.75v-2.1875h7.5918c0.4142,-0.00004 0.74996,-0.3358 0.75,-0.75v-5.3789c0.00264,-0.20266 -0.07683,-0.39776 -0.22034,-0.54088c-0.1435,-0.14312 -0.33882,-0.22208 -0.54146,-0.21889c-0.41341,0.00651 -0.7436,0.34634 -0.7382,0.75977v4.6289h-6.8418v-1.6914c0.00383,-0.27048 -0.13828,-0.52206 -0.3719,-0.65842c-0.23362,-0.13635 -0.52257,-0.13635 -0.75619,0c-0.23362,0.13635 -0.37573,0.38794 -0.3719,0.65842v4.6289h-8.3164v-4.6289c0.00263,-0.2023 -0.07657,-0.39709 -0.21964,-0.54015c-0.14307,-0.14306 -0.33786,-0.22226 -0.54016,-0.21962c-0.4142,0.00542 -0.74559,0.34557 -0.7402,0.75977v1.6914h-6.8418v-4.6289c0.00264,-0.20266 -0.07683,-0.39776 -0.22034,-0.54088c-0.1435,-0.14312 -0.33882,-0.22208 -0.54146,-0.21889z" fill-rule="evenodd"></path><path transform="translate(8,-1016.737)" d="M9.75,1038.1122c0,1.24264 -1.00736,2.25 -2.25,2.25c-1.24264,0 -2.25,-1.00736 -2.25,-2.25c0,-1.24264 1.00736,-2.25 2.25,-2.25c1.24264,0 2.25,1.00736 2.25,2.25z" fill-rule="nonzero"></path><path transform="translate(8,-1016.737)" d="M26.75,1038.1122c0,1.24264 -1.00736,2.25 -2.25,2.25c-1.24264,0 -2.25,-1.00736 -2.25,-2.25c0,-1.24264 1.00736,-2.25 2.25,-2.25c1.24264,0 2.25,1.00736 2.25,2.25z" fill-rule="nonzero"></path><path transform="translate(8,-1016.737)" d="M18.25,1033.1122c0,1.24264 -1.00736,2.25 -2.25,2.25c-1.24264,0 -2.25,-1.00736 -2.25,-2.25c0,-1.24264 1.00736,-2.25 2.25,-2.25c1.24264,0 2.25,1.00736 2.25,2.25z" fill-rule="nonzero"></path></g></g></g></svg>