<svg xmlns="http://www.w3.org/2000/svg" xmlns:xlink="http://www.w3.org/1999/xlink" viewBox="0,0,256,256" width="96px" height="96px"><g fill="#576476" fill-rule="nonzero" stroke="none" stroke-width="1" stroke-linecap="butt" stroke-linejoin="miter" stroke-miterlimit="10" stroke-dasharray="" stroke-dashoffset="0" font-family="none" font-weight="none" font-size="none" text-anchor="none" style="mix-blend-mode: normal"><g transform="scale(4,4)"><path d="M42.5,14c-4.687,0 -8.5,4.038 -8.5,9c0,4.962 3.813,9 8.5,9c4.687,0 8.5,-4.038 8.5,-9c0,-4.962 -3.813,-9 -8.5,-9zM21.5,17c-4.687,0 -8.5,4.038 -8.5,9c0,4.962 3.813,9 8.5,9c4.687,0 8.5,-4.038 8.5,-9c0,-4.962 -3.813,-9 -8.5,-9zM42.5,18c2.481,0 4.5,2.243 4.5,5c0,2.757 -2.019,5 -4.5,5c-2.481,0 -4.5,-2.243 -4.5,-5c0,-2.757 2.019,-5 4.5,-5zM42.49805,34.13672c-4.91903,0 -9.42081,1.81124 -12.44336,4.82617c-2.38411,-1.16631 -5.13927,-1.82617 -8.05469,-1.82617c-7.044,0 -13.18706,3.8057 -15.28906,9.4707c-0.97,2.613 1.0012,5.39258 3.7832,5.39258h23.01172c1.92526,0 3.45108,-1.3252 3.89844,-3h16.02734c3.006,0 5.68981,-3.15572 4.13281,-6.38672c-2.48,-5.15 -8.39541,-8.47656 -15.06641,-8.47656zM42.5,38.13672c5.065,0 9.67194,2.49689 11.46094,6.21289c0.159,0.338 -0.21925,0.65039 -0.53125,0.65039h-16.88477c-0.76767,-1.41454 -1.79815,-2.68255 -3.04102,-3.76562c2.28105,-1.9278 5.53101,-3.09766 8.99609,-3.09766z"></path></g></g></svg>