<svg xmlns="http://www.w3.org/2000/svg"  viewBox="0 0 50 50" width="100px" height="100px"><path d="M 3 5 L 3 12.994141 C 3.101 12.874141 3.2036406 12.774406 3.3066406 12.691406 C 4.8576406 11.038406 7.055 10 9.5 10 C 14.194 10 18 13.806 18 18.5 C 18 21.138 16.798109 23.495687 14.912109 25.054688 C 15.964109 25.150688 16.998219 25.373703 17.949219 25.720703 L 18.005859 25.740234 L 18.060547 25.765625 L 20.365234 26.763672 L 23.447266 22.998047 C 24.192266 21.934047 25.367047 21.204391 26.623047 21.025391 C 26.898047 20.974391 27.178031 20.949219 27.457031 20.949219 C 28.819031 20.949219 30.143516 21.564672 31.103516 22.638672 C 32.590516 24.183672 32.763516 26.905141 31.478516 28.744141 C 30.790516 29.730141 29.848563 30.913062 28.851562 32.164062 C 27.774562 33.516062 26.660297 34.914391 25.904297 36.025391 L 25.869141 36.076172 L 25.830078 36.126953 C 24.969078 37.236953 23.736063 37.895469 22.414062 37.980469 C 22.411062 37.988469 22.406344 37.992 22.402344 38 L 47 38 L 47 6 C 46.899 5.4 46.501344 5 45.902344 5 L 3 5 z M 20 11 L 32 11 L 32 13 L 20 13 L 20 11 z M 35 11 L 42 11 L 42 13 L 35 13 L 35 11 z M 9.5 12 A 6.5 6.5 0 0 0 9.5 25 A 6.5 6.5 0 0 0 9.5 12 z M 20 16 L 42 16 L 42 18 L 20 18 L 20 16 z M 27.318359 22.953125 C 27.194195 22.959766 27.068109 22.975 26.943359 23 C 26.145359 23.1 25.447828 23.599219 25.048828 24.199219 L 20.957031 29.199219 L 17.265625 27.599609 C 16.167625 27.199609 14.970437 27 13.773438 27 L 6.4882812 27 C 3.4952812 27 1 29.5 1 32.5 L 1 41 L 1 45 L 16.964844 45 L 16.964844 33.900391 L 21.455078 35.900391 C 22.453078 36.200391 23.549047 35.800391 24.248047 34.900391 C 25.745047 32.700391 28.440891 29.599609 29.837891 27.599609 C 30.536891 26.599609 30.536672 24.9 29.638672 24 C 29.027922 23.3 28.187508 22.906641 27.318359 22.953125 z M 19.046875 40 L 19.046875 45 L 48 45 C 48.552 45 49 44.552 49 44 L 49 42 C 49 40.895 48.105 40 47 40 L 19.046875 40 z"/></svg>