<svg xmlns="http://www.w3.org/2000/svg" xmlns:xlink="http://www.w3.org/1999/xlink" viewBox="0,0,256,256" width="96px" height="96px"><g fill="#ffffff" fill-rule="evenodd" stroke="none" stroke-width="1" stroke-linecap="butt" stroke-linejoin="miter" stroke-miterlimit="10" stroke-dasharray="" stroke-dashoffset="0" font-family="none" font-weight="none" font-size="none" text-anchor="none" style="mix-blend-mode: normal"><g transform="scale(10.66667,10.66667)"><path d="M8,1.25c-0.597,0 -1.1698,0.2362 -1.5918,0.6582c-0.422,0.422 -0.6582,0.9948 -0.6582,1.5918v0.75h-1.75c-0.729,0 -1.42931,0.28969 -1.94531,0.80469c-0.515,0.516 -0.80469,1.21631 -0.80469,1.94531v11c0,0.729 0.28969,1.42931 0.80469,1.94531c0.516,0.515 1.21631,0.80469 1.94531,0.80469h8c0.414,0 0.75,-0.336 0.75,-0.75c0,-0.414 -0.336,-0.75 -0.75,-0.75h-8c-0.332,0 -0.64977,-0.13123 -0.88477,-0.36523c-0.234,-0.235 -0.36523,-0.55277 -0.36523,-0.88477v-9.87891l0.55273,1.39258c0.416,1.048 1.42769,1.73633 2.55469,1.73633h1.39258v0.25c0,0.414 0.336,0.75 0.75,0.75c0.414,0 0.75,-0.336 0.75,-0.75v-0.25h6.5v0.25c0,0.414 0.336,0.75 0.75,0.75c0.414,0 0.75,-0.336 0.75,-0.75v-0.25h1.39258c1.127,0 2.13869,-0.68833 2.55469,-1.73633l0.55273,-1.39258v5.87891c0,0.414 0.336,0.75 0.75,0.75c0.414,0 0.75,-0.336 0.75,-0.75v-7c0,-0.729 -0.28969,-1.42931 -0.80469,-1.94531c-0.516,-0.515 -1.21631,-0.80469 -1.94531,-0.80469h-1.75v-0.75c0,-0.597 -0.2362,-1.1698 -0.6582,-1.5918c-0.422,-0.422 -0.9948,-0.6582 -1.5918,-0.6582zM8,2.75h8c0.199,0 0.3893,0.0797 0.5293,0.2207c0.141,0.14 0.2207,0.3303 0.2207,0.5293v0.75h-9.5v-0.75c0,-0.199 0.0797,-0.3893 0.2207,-0.5293c0.14,-0.141 0.3303,-0.2207 0.5293,-0.2207zM4,5.75h2.5h11h2.5c0.1861,0 0.36247,0.05124 0.52734,0.12891l-1.22266,3.08203c-0.189,0.476 -0.65011,0.78906 -1.16211,0.78906h-1.39258v-0.25c0,-0.414 -0.336,-0.75 -0.75,-0.75c-0.414,0 -0.75,0.336 -0.75,0.75v0.25h-6.5v-0.25c0,-0.414 -0.336,-0.75 -0.75,-0.75c-0.414,0 -0.75,0.336 -0.75,0.75v0.25h-1.39258c-0.512,0 -0.97311,-0.31306 -1.16211,-0.78906l-1.22266,-3.08203c0.16488,-0.07767 0.34124,-0.12891 0.52734,-0.12891zM17.5,13.25c-2.346,0 -4.25,1.904 -4.25,4.25c0,2.346 1.904,4.25 4.25,4.25c0.90267,0 1.73531,-0.28709 2.42383,-0.76758l1.54688,1.54688c0.292,0.293 0.76659,0.293 1.05859,0c0.293,-0.292 0.293,-0.76659 0,-1.05859l-1.54687,-1.54687c0.48049,-0.68851 0.76758,-1.52116 0.76758,-2.42383c0,-2.346 -1.904,-4.25 -4.25,-4.25zM17.5,14.75c1.518,0 2.75,1.232 2.75,2.75c0,1.518 -1.232,2.75 -2.75,2.75c-1.518,0 -2.75,-1.232 -2.75,-2.75c0,-1.518 1.232,-2.75 2.75,-2.75z"></path></g></g></svg>