<svg xmlns="http://www.w3.org/2000/svg" xmlns:xlink="http://www.w3.org/1999/xlink" viewBox="0,0,256,256" width="90px" height="90px"><g fill="#666666" fill-rule="nonzero" stroke="none" stroke-width="1" stroke-linecap="butt" stroke-linejoin="miter" stroke-miterlimit="10" stroke-dasharray="" stroke-dashoffset="0" font-family="none" font-weight="none" font-size="none" text-anchor="none" style="mix-blend-mode: normal"><g transform="scale(8.53333,8.53333)"><path d="M4,5c-1.105,0 -2,0.895 -2,2v16c0,1.105 0.895,2 2,2h10.23047c-0.147,-0.644 -0.23047,-1.312 -0.23047,-2c0,-0.338 0.02159,-0.671 0.05859,-1h-9.05859v-7l2.28906,-2.28906c0.945,-0.945 2.47687,-0.945 3.42188,0l5.00977,5.00977c1.636,-2.251 4.2833,-3.7207 7.2793,-3.7207c1.851,0 3.57,0.55958 5,1.51758v-8.51758c0,-1.105 -0.895,-2 -2,-2zM23,8c1.105,0 2,0.895 2,2c0,1.105 -0.895,2 -2,2c-1.105,0 -2,-0.895 -2,-2c0,-1.105 0.895,-2 2,-2zM23,16c-3.866,0 -7,3.134 -7,7c0,3.866 3.134,7 7,7c3.866,0 7,-3.134 7,-7c0,-3.866 -3.134,-7 -7,-7zM23,19c0.552,0 1,0.447 1,1v2h2c0.552,0 1,0.447 1,1c0,0.553 -0.448,1 -1,1h-2v2c0,0.553 -0.448,1 -1,1c-0.552,0 -1,-0.447 -1,-1v-2h-2c-0.552,0 -1,-0.447 -1,-1c0,-0.553 0.448,-1 1,-1h2v-2c0,-0.553 0.448,-1 1,-1z"></path></g></g></svg>