<svg xmlns="http://www.w3.org/2000/svg"  viewBox="0 0 50 50" width="100px" height="100px"><path d="M 6 0 C 5.449219 0 5 0.449219 5 1 L 5 44 C 5 44.554688 5.449219 45 6 45 L 25.8125 45 C 27.914063 46.261719 30.375 47 33 47 C 36.503906 47 39.699219 45.695313 42.15625 43.5625 L 48.59375 50 L 50 48.59375 L 43.59375 42.15625 C 45.71875 39.699219 47 36.496094 47 33 C 47 28.253906 44.621094 24.066406 41 21.53125 L 41 1 C 41 0.449219 40.554688 0 40 0 Z M 14 10 L 33 10 L 33 12 L 14 12 Z M 14 16 L 33 16 L 33 18 L 14 18 Z M 33 21 C 39.617188 21 45 26.382813 45 33 C 45 39.617188 39.617188 45 33 45 C 26.382813 45 21 39.617188 21 33 C 21 26.382813 26.382813 21 33 21 Z M 14 22 L 24.375 22 C 23.617188 22.59375 22.933594 23.265625 22.3125 24 L 14 24 Z M 25 27 C 24.300781 27.898438 23.800781 28.898438 23.5 30 L 38 30 L 38 27 Z M 14 28 L 19.9375 28 C 19.691406 28.644531 19.464844 29.3125 19.3125 30 L 14 30 Z M 14 34 L 19.0625 34 C 19.113281 34.683594 19.199219 35.347656 19.34375 36 L 14 36 Z M 23.1875 35 C 23.386719 36.101563 23.8125 37.101563 24.3125 38 L 38 38 L 38 35 Z"/></svg>