<svg xmlns="http://www.w3.org/2000/svg" xmlns:xlink="http://www.w3.org/1999/xlink" viewBox="0,0,256,256" width="96px" height="96px"><g fill="#ffffff" fill-rule="nonzero" stroke="none" stroke-width="1" stroke-linecap="butt" stroke-linejoin="miter" stroke-miterlimit="10" stroke-dasharray="" stroke-dashoffset="0" font-family="none" font-weight="none" font-size="none" text-anchor="none" style="mix-blend-mode: normal"><g transform="scale(5.33333,5.33333)"><path d="M5.44531,4.00195c-0.48431,0.01805 -0.93007,0.26896 -1.19676,0.67363c-0.26668,0.40468 -0.32144,0.91326 -0.14699,1.36543l5.5,14.20117c0.1926,0.4957 0.63325,0.85238 1.1582,0.9375l14.94141,2.42578c0.37223,0.06035 0.33594,0.16781 0.33594,0.39453c0,0.22672 0.03629,0.33418 -0.33594,0.39453l-14.94141,2.42578c-0.52495,0.08512 -0.9656,0.4418 -1.1582,0.9375l-5.5,14.20117c-0.22282,0.57754 -0.06801,1.23263 0.38976,1.64933c0.45777,0.4167 1.12449,0.50944 1.6786,0.23348l37,-18.5c0.50825,-0.2541 0.82931,-0.77356 0.82931,-1.3418c0,-0.56823 -0.32106,-1.08769 -0.82931,-1.3418l-37,-18.5c-0.22466,-0.11188 -0.47381,-0.1656 -0.72461,-0.15625z"></path></g></g></svg>